<svg width="2744" height="1154" viewBox="0 0 2744 1154" fill="none" xmlns="http://www.w3.org/2000/svg">
<rect width="2744" height="1154" fill="url(#paint0_linear_111_2)"/>
<path d="M76.92 108V60.96H60.92V50.72H103.72V60.96H87.72V108H76.92ZM110.521 50.72H121.001V66.8L120.361 73.92H121.001C122.121 72.0533 123.721 70.5333 125.801 69.36C127.934 68.1333 130.307 67.52 132.921 67.52C137.987 67.52 141.721 69.0133 144.121 72C146.574 74.9867 147.801 79.0667 147.801 84.24V108H137.321V85.52C137.321 82.8 136.681 80.7467 135.401 79.36C134.121 77.92 132.334 77.2 130.041 77.2C128.601 77.2 127.321 77.52 126.201 78.16C125.081 78.7467 124.121 79.5733 123.321 80.64C122.574 81.7067 121.987 82.96 121.561 84.4C121.187 85.7867 121.001 87.28 121.001 88.88V108H110.521V50.72ZM193.978 98.56C192.165 101.76 189.711 104.347 186.618 106.32C183.578 108.293 179.845 109.28 175.418 109.28C172.431 109.28 169.658 108.773 167.098 107.76C164.591 106.693 162.405 105.227 160.538 103.36C158.671 101.493 157.205 99.3067 156.138 96.8C155.125 94.24 154.618 91.44 154.618 88.4C154.618 85.5733 155.125 82.9067 156.138 80.4C157.151 77.84 158.565 75.6267 160.378 73.76C162.191 71.84 164.325 70.32 166.778 69.2C169.285 68.08 172.031 67.52 175.018 67.52C178.165 67.52 180.965 68.0533 183.418 69.12C185.871 70.1333 187.925 71.5733 189.578 73.44C191.231 75.2533 192.485 77.4133 193.338 79.92C194.191 82.4267 194.618 85.1467 194.618 88.08C194.618 88.4533 194.618 88.7733 194.618 89.04C194.565 89.36 194.538 89.6533 194.538 89.92C194.485 90.1867 194.458 90.48 194.458 90.8H164.938C165.151 92.4 165.578 93.7867 166.218 94.96C166.911 96.08 167.738 97.04 168.698 97.84C169.711 98.5867 170.805 99.1467 171.978 99.52C173.151 99.84 174.351 100 175.578 100C177.978 100 179.951 99.4667 181.498 98.4C183.098 97.28 184.351 95.8933 185.258 94.24L193.978 98.56ZM184.458 83.36C184.405 82.6667 184.165 81.8933 183.738 81.04C183.365 80.1867 182.778 79.3867 181.978 78.64C181.231 77.8933 180.271 77.28 179.098 76.8C177.978 76.32 176.618 76.08 175.018 76.08C172.778 76.08 170.805 76.72 169.098 78C167.391 79.28 166.191 81.0667 165.498 83.36H184.458ZM64.76 248V190.72H84.92C87.64 190.72 90.1733 191.173 92.52 192.08C94.92 192.933 97 194.16 98.76 195.76C100.52 197.36 101.907 199.28 102.92 201.52C103.933 203.707 104.44 206.133 104.44 208.8C104.44 211.52 103.933 214 102.92 216.24C101.907 218.427 100.52 220.32 98.76 221.92C97 223.52 94.92 224.773 92.52 225.68C90.1733 226.533 87.64 226.96 84.92 226.96H75.56V248H64.76ZM85.08 216.72C87.9067 216.72 90.04 215.92 91.48 214.32C92.92 212.72 93.64 210.88 93.64 208.8C93.64 207.787 93.4533 206.8 93.08 205.84C92.76 204.88 92.2267 204.053 91.48 203.36C90.7867 202.613 89.9067 202.027 88.84 201.6C87.7733 201.173 86.52 200.96 85.08 200.96H75.56V216.72H85.08ZM111.224 208.8H121.064V214.24H121.704C122.184 213.28 122.824 212.4 123.624 211.6C124.424 210.8 125.304 210.107 126.264 209.52C127.277 208.933 128.344 208.48 129.464 208.16C130.637 207.84 131.784 207.68 132.904 207.68C134.29 207.68 135.464 207.813 136.424 208.08C137.437 208.347 138.29 208.693 138.984 209.12L136.184 218.64C135.544 218.32 134.824 218.08 134.024 217.92C133.277 217.707 132.344 217.6 131.224 217.6C129.784 217.6 128.477 217.893 127.304 218.48C126.13 219.013 125.117 219.787 124.264 220.8C123.464 221.813 122.824 223.013 122.344 224.4C121.917 225.733 121.704 227.2 121.704 228.8V248H111.224V208.8ZM160.34 207.52C163.38 207.52 166.153 208.053 168.66 209.12C171.22 210.133 173.407 211.573 175.22 213.44C177.087 215.253 178.527 217.44 179.54 220C180.607 222.56 181.14 225.36 181.14 228.4C181.14 231.44 180.607 234.24 179.54 236.8C178.527 239.36 177.087 241.573 175.22 243.44C173.407 245.253 171.22 246.693 168.66 247.76C166.153 248.773 163.38 249.28 160.34 249.28C157.3 249.28 154.5 248.773 151.94 247.76C149.433 246.693 147.247 245.253 145.38 243.44C143.567 241.573 142.127 239.36 141.06 236.8C140.047 234.24 139.54 231.44 139.54 228.4C139.54 225.36 140.047 222.56 141.06 220C142.127 217.44 143.567 215.253 145.38 213.44C147.247 211.573 149.433 210.133 151.94 209.12C154.5 208.053 157.3 207.52 160.34 207.52ZM160.34 239.6C161.673 239.6 162.953 239.36 164.18 238.88C165.46 238.347 166.58 237.6 167.54 236.64C168.5 235.68 169.247 234.507 169.78 233.12C170.367 231.733 170.66 230.16 170.66 228.4C170.66 226.64 170.367 225.067 169.78 223.68C169.247 222.293 168.5 221.12 167.54 220.16C166.58 219.2 165.46 218.48 164.18 218C162.953 217.467 161.673 217.2 160.34 217.2C158.953 217.2 157.647 217.467 156.42 218C155.193 218.48 154.1 219.2 153.14 220.16C152.18 221.12 151.407 222.293 150.82 223.68C150.287 225.067 150.02 226.64 150.02 228.4C150.02 230.16 150.287 231.733 150.82 233.12C151.407 234.507 152.18 235.68 153.14 236.64C154.1 237.6 155.193 238.347 156.42 238.88C157.647 239.36 158.953 239.6 160.34 239.6ZM182.203 255.68C182.63 255.947 183.03 256.133 183.403 256.24C183.83 256.347 184.336 256.4 184.923 256.4C187.323 256.4 188.523 254.827 188.523 251.68V208.8H199.003V252C199.003 254.56 198.656 256.72 197.963 258.48C197.27 260.293 196.336 261.76 195.163 262.88C193.99 264 192.63 264.8 191.083 265.28C189.536 265.813 187.883 266.08 186.123 266.08C184.79 266.08 183.59 265.973 182.523 265.76C181.456 265.6 180.47 265.333 179.563 264.96L182.203 255.68ZM193.723 203.12C192.816 203.12 191.936 202.96 191.083 202.64C190.283 202.267 189.563 201.787 188.923 201.2C188.336 200.56 187.856 199.84 187.483 199.04C187.163 198.24 187.003 197.36 187.003 196.4C187.003 195.44 187.163 194.56 187.483 193.76C187.856 192.96 188.336 192.267 188.923 191.68C189.563 191.04 190.283 190.56 191.083 190.24C191.936 189.867 192.816 189.68 193.723 189.68C195.59 189.68 197.19 190.347 198.523 191.68C199.856 192.96 200.523 194.533 200.523 196.4C200.523 198.267 199.856 199.867 198.523 201.2C197.19 202.48 195.59 203.12 193.723 203.12ZM245.716 238.56C243.902 241.76 241.449 244.347 238.356 246.32C235.316 248.293 231.582 249.28 227.156 249.28C224.169 249.28 221.396 248.773 218.836 247.76C216.329 246.693 214.142 245.227 212.276 243.36C210.409 241.493 208.942 239.307 207.876 236.8C206.862 234.24 206.356 231.44 206.356 228.4C206.356 225.573 206.862 222.907 207.876 220.4C208.889 217.84 210.302 215.627 212.116 213.76C213.929 211.84 216.062 210.32 218.516 209.2C221.022 208.08 223.769 207.52 226.756 207.52C229.902 207.52 232.702 208.053 235.156 209.12C237.609 210.133 239.662 211.573 241.316 213.44C242.969 215.253 244.222 217.413 245.076 219.92C245.929 222.427 246.356 225.147 246.356 228.08C246.356 228.453 246.356 228.773 246.356 229.04C246.302 229.36 246.276 229.653 246.276 229.92C246.222 230.187 246.196 230.48 246.196 230.8H216.676C216.889 232.4 217.316 233.787 217.956 234.96C218.649 236.08 219.476 237.04 220.436 237.84C221.449 238.587 222.542 239.147 223.716 239.52C224.889 239.84 226.089 240 227.316 240C229.716 240 231.689 239.467 233.236 238.4C234.836 237.28 236.089 235.893 236.996 234.24L245.716 238.56ZM236.196 223.36C236.142 222.667 235.902 221.893 235.476 221.04C235.102 220.187 234.516 219.387 233.716 218.64C232.969 217.893 232.009 217.28 230.836 216.8C229.716 216.32 228.356 216.08 226.756 216.08C224.516 216.08 222.542 216.72 220.836 218C219.129 219.28 217.929 221.067 217.236 223.36H236.196ZM291.039 238C289.333 241.307 286.933 244.027 283.839 246.16C280.799 248.24 276.986 249.28 272.399 249.28C269.359 249.28 266.559 248.773 263.999 247.76C261.493 246.693 259.306 245.227 257.439 243.36C255.626 241.493 254.186 239.307 253.119 236.8C252.106 234.24 251.599 231.44 251.599 228.4C251.599 225.36 252.106 222.56 253.119 220C254.186 217.44 255.626 215.253 257.439 213.44C259.306 211.573 261.493 210.133 263.999 209.12C266.559 208.053 269.359 207.52 272.399 207.52C276.933 207.52 280.746 208.56 283.839 210.64C286.933 212.72 289.199 215.413 290.639 218.72L281.039 222.72C280.133 220.907 278.959 219.547 277.519 218.64C276.133 217.68 274.373 217.2 272.239 217.2C270.853 217.2 269.546 217.467 268.319 218C267.093 218.533 265.999 219.28 265.039 220.24C264.133 221.2 263.413 222.373 262.879 223.76C262.346 225.147 262.079 226.693 262.079 228.4C262.079 230.107 262.346 231.653 262.879 233.04C263.413 234.427 264.133 235.6 265.039 236.56C265.999 237.52 267.093 238.267 268.319 238.8C269.546 239.333 270.853 239.6 272.239 239.6C274.426 239.6 276.266 239.12 277.759 238.16C279.306 237.147 280.533 235.707 281.439 233.84L291.039 238ZM301.762 217.76H294.882V208.8H301.762V196.8H312.242V208.8H321.842V217.76H312.242V232.96C312.242 233.867 312.322 234.72 312.482 235.52C312.696 236.267 313.069 236.907 313.602 237.44C314.349 238.293 315.416 238.72 316.802 238.72C317.709 238.72 318.429 238.64 318.962 238.48C319.496 238.267 320.002 238 320.482 237.68L323.442 246.88C322.216 247.467 320.882 247.893 319.442 248.16C318.056 248.48 316.509 248.64 314.802 248.64C312.829 248.64 311.042 248.347 309.442 247.76C307.896 247.12 306.589 246.267 305.522 245.2C303.016 242.8 301.762 239.387 301.762 234.96V217.76ZM336.272 248.48C334.352 248.48 332.699 247.813 331.312 246.48C329.979 245.093 329.312 243.44 329.312 241.52C329.312 239.6 329.979 237.973 331.312 236.64C332.699 235.307 334.352 234.64 336.272 234.64C338.192 234.64 339.819 235.307 341.152 236.64C342.485 237.973 343.152 239.6 343.152 241.52C343.152 243.44 342.485 245.093 341.152 246.48C339.819 247.813 338.192 248.48 336.272 248.48Z" fill="url(#paint1_linear_111_2)"/>
<path d="M82.28 179.28C79.8267 179.28 77.48 178.933 75.24 178.24C73 177.547 70.9467 176.507 69.08 175.12C67.2133 173.733 65.5867 172.053 64.2 170.08C62.8133 168.053 61.72 165.707 60.92 163.04L71.08 159.04C71.8267 161.92 73.1333 164.32 75 166.24C76.8667 168.107 79.32 169.04 82.36 169.04C83.48 169.04 84.5467 168.907 85.56 168.64C86.6267 168.32 87.56 167.893 88.36 167.36C89.2133 166.773 89.88 166.053 90.36 165.2C90.84 164.347 91.08 163.36 91.08 162.24C91.08 161.173 90.8933 160.213 90.52 159.36C90.1467 158.507 89.5067 157.707 88.6 156.96C87.7467 156.213 86.6 155.493 85.16 154.8C83.7733 154.107 82.04 153.387 79.96 152.64L76.44 151.36C74.8933 150.827 73.32 150.107 71.72 149.2C70.1733 148.293 68.76 147.2 67.48 145.92C66.2 144.64 65.1333 143.147 64.28 141.44C63.48 139.68 63.08 137.707 63.08 135.52C63.08 133.28 63.5067 131.2 64.36 129.28C65.2667 127.307 66.52 125.6 68.12 124.16C69.7733 122.667 71.72 121.52 73.96 120.72C76.2533 119.867 78.7867 119.44 81.56 119.44C84.44 119.44 86.92 119.84 89 120.64C91.1333 121.387 92.92 122.373 94.36 123.6C95.8533 124.773 97.0533 126.08 97.96 127.52C98.8667 128.96 99.5333 130.32 99.96 131.6L90.44 135.6C89.9067 134 88.92 132.56 87.48 131.28C86.0933 130 84.1733 129.36 81.72 129.36C79.3733 129.36 77.4267 129.92 75.88 131.04C74.3333 132.107 73.56 133.52 73.56 135.28C73.56 136.987 74.3067 138.453 75.8 139.68C77.2933 140.853 79.6667 142 82.92 143.12L86.52 144.32C88.8133 145.12 90.8933 146.053 92.76 147.12C94.68 148.133 96.3067 149.36 97.64 150.8C99.0267 152.24 100.067 153.893 100.76 155.76C101.507 157.573 101.88 159.68 101.88 162.08C101.88 165.067 101.267 167.653 100.04 169.84C98.8667 171.973 97.3467 173.733 95.48 175.12C93.6133 176.507 91.5067 177.547 89.16 178.24C86.8133 178.933 84.52 179.28 82.28 179.28ZM112.184 147.76H105.304V138.8H112.184V126.8H122.664V138.8H132.264V147.76H122.664V162.96C122.664 163.867 122.744 164.72 122.904 165.52C123.118 166.267 123.491 166.907 124.024 167.44C124.771 168.293 125.838 168.72 127.224 168.72C128.131 168.72 128.851 168.64 129.384 168.48C129.918 168.267 130.424 168 130.904 167.68L133.864 176.88C132.638 177.467 131.304 177.893 129.864 178.16C128.478 178.48 126.931 178.64 125.224 178.64C123.251 178.64 121.464 178.347 119.864 177.76C118.318 177.12 117.011 176.267 115.944 175.2C113.438 172.8 112.184 169.387 112.184 164.96V147.76ZM163.753 173.84H163.113C161.886 175.333 160.393 176.613 158.633 177.68C156.926 178.747 154.713 179.28 151.993 179.28C149.966 179.28 148.046 178.933 146.233 178.24C144.473 177.6 142.926 176.693 141.593 175.52C140.259 174.347 139.219 172.933 138.473 171.28C137.726 169.627 137.353 167.813 137.353 165.84C137.353 163.813 137.753 162 138.553 160.4C139.353 158.747 140.473 157.333 141.913 156.16C143.353 154.987 145.033 154.107 146.953 153.52C148.926 152.88 151.059 152.56 153.353 152.56C155.913 152.56 158.019 152.773 159.673 153.2C161.326 153.573 162.686 153.973 163.753 154.4V153.2C163.753 151.12 162.926 149.413 161.273 148.08C159.619 146.693 157.566 146 155.113 146C151.486 146 148.419 147.52 145.913 150.56L138.313 145.36C142.473 140.133 148.153 137.52 155.353 137.52C161.433 137.52 166.073 138.96 169.273 141.84C172.473 144.667 174.073 148.88 174.073 154.48V178H163.753V173.84ZM163.753 162.08C162.526 161.493 161.246 161.04 159.913 160.72C158.633 160.347 157.219 160.16 155.673 160.16C153.166 160.16 151.219 160.72 149.833 161.84C148.499 162.907 147.833 164.24 147.833 165.84C147.833 167.44 148.473 168.72 149.753 169.68C151.086 170.64 152.606 171.12 154.313 171.12C155.699 171.12 156.979 170.88 158.153 170.4C159.326 169.867 160.313 169.2 161.113 168.4C161.966 167.547 162.606 166.587 163.033 165.52C163.513 164.4 163.753 163.253 163.753 162.08ZM192.645 143.92H193.285C194.512 141.947 196.165 140.4 198.245 139.28C200.325 138.107 202.698 137.52 205.365 137.52C207.818 137.52 209.978 137.92 211.845 138.72C213.712 139.52 215.232 140.667 216.405 142.16C217.632 143.6 218.538 145.36 219.125 147.44C219.765 149.467 220.085 151.733 220.085 154.24V178H209.605V155.52C209.605 152.693 208.965 150.613 207.685 149.28C206.458 147.893 204.645 147.2 202.245 147.2C200.805 147.2 199.525 147.52 198.405 148.16C197.338 148.747 196.405 149.573 195.605 150.64C194.858 151.653 194.272 152.88 193.845 154.32C193.472 155.707 193.285 157.2 193.285 158.8V178H182.805V138.8H192.645V143.92ZM258.343 173.28H257.703C256.743 174.933 255.249 176.347 253.223 177.52C251.196 178.693 248.689 179.28 245.703 179.28C243.196 179.28 240.796 178.773 238.503 177.76C236.263 176.693 234.263 175.253 232.503 173.44C230.796 171.573 229.436 169.36 228.423 166.8C227.409 164.24 226.903 161.44 226.903 158.4C226.903 155.36 227.409 152.56 228.423 150C229.436 147.44 230.796 145.253 232.503 143.44C234.263 141.573 236.263 140.133 238.503 139.12C240.796 138.053 243.196 137.52 245.703 137.52C248.689 137.52 251.196 138.107 253.223 139.28C255.249 140.453 256.743 141.867 257.703 143.52H258.343L257.703 137.92V120.72H268.183V178H258.343V173.28ZM247.863 169.6C249.249 169.6 250.556 169.36 251.783 168.88C253.063 168.347 254.183 167.6 255.143 166.64C256.103 165.68 256.876 164.507 257.463 163.12C258.049 161.733 258.343 160.16 258.343 158.4C258.343 156.64 258.049 155.067 257.463 153.68C256.876 152.293 256.103 151.12 255.143 150.16C254.183 149.2 253.063 148.48 251.783 148C250.556 147.467 249.249 147.2 247.863 147.2C246.476 147.2 245.143 147.467 243.863 148C242.636 148.533 241.543 149.28 240.583 150.24C239.623 151.2 238.849 152.373 238.263 153.76C237.676 155.147 237.383 156.693 237.383 158.4C237.383 160.107 237.676 161.653 238.263 163.04C238.849 164.427 239.623 165.6 240.583 166.56C241.543 167.52 242.636 168.267 243.863 168.8C245.143 169.333 246.476 169.6 247.863 169.6ZM278.791 114.64H288.391V187.6H278.791V114.64ZM323.165 173.84H322.525C321.298 175.333 319.805 176.613 318.045 177.68C316.338 178.747 314.125 179.28 311.405 179.28C309.378 179.28 307.458 178.933 305.645 178.24C303.885 177.6 302.338 176.693 301.005 175.52C299.672 174.347 298.632 172.933 297.885 171.28C297.138 169.627 296.765 167.813 296.765 165.84C296.765 163.813 297.165 162 297.965 160.4C298.765 158.747 299.885 157.333 301.325 156.16C302.765 154.987 304.445 154.107 306.365 153.52C308.338 152.88 310.472 152.56 312.765 152.56C315.325 152.56 317.432 152.773 319.085 153.2C320.738 153.573 322.098 153.973 323.165 154.4V153.2C323.165 151.12 322.338 149.413 320.685 148.08C319.032 146.693 316.978 146 314.525 146C310.898 146 307.832 147.52 305.325 150.56L297.725 145.36C301.885 140.133 307.565 137.52 314.765 137.52C320.845 137.52 325.485 138.96 328.685 141.84C331.885 144.667 333.485 148.88 333.485 154.48V178H323.165V173.84ZM323.165 162.08C321.938 161.493 320.658 161.04 319.325 160.72C318.045 160.347 316.632 160.16 315.085 160.16C312.578 160.16 310.632 160.72 309.245 161.84C307.912 162.907 307.245 164.24 307.245 165.84C307.245 167.44 307.885 168.72 309.165 169.68C310.498 170.64 312.018 171.12 313.725 171.12C315.112 171.12 316.392 170.88 317.565 170.4C318.738 169.867 319.725 169.2 320.525 168.4C321.378 167.547 322.018 166.587 322.445 165.52C322.925 164.4 323.165 163.253 323.165 162.08ZM352.057 144.24H352.697C353.764 142.267 355.311 140.693 357.337 139.52C359.417 138.293 361.711 137.68 364.217 137.68C365.124 137.68 365.844 137.707 366.377 137.76C366.911 137.813 367.417 137.92 367.897 138.08V148.48C367.311 148.213 366.644 148 365.897 147.84C365.204 147.68 364.351 147.6 363.337 147.6C360.031 147.6 357.417 148.613 355.497 150.64C353.631 152.613 352.697 155.333 352.697 158.8V178H342.217V138.8H352.057V144.24ZM379.497 147.76H372.617V138.8H379.497V126.8H389.977V138.8H399.577V147.76H389.977V162.96C389.977 163.867 390.057 164.72 390.217 165.52C390.431 166.267 390.804 166.907 391.337 167.44C392.084 168.293 393.151 168.72 394.537 168.72C395.444 168.72 396.164 168.64 396.697 168.48C397.231 168.267 397.737 168 398.217 167.68L401.177 176.88C399.951 177.467 398.617 177.893 397.177 178.16C395.791 178.48 394.244 178.64 392.537 178.64C390.564 178.64 388.777 178.347 387.177 177.76C385.631 177.12 384.324 176.267 383.257 175.2C380.751 172.8 379.497 169.387 379.497 164.96V147.76ZM452.511 179.28C448.245 179.28 444.271 178.507 440.591 176.96C436.965 175.413 433.818 173.307 431.151 170.64C428.485 167.92 426.378 164.747 424.831 161.12C423.338 157.44 422.591 153.52 422.591 149.36C422.591 145.2 423.338 141.307 424.831 137.68C426.378 134 428.485 130.827 431.151 128.16C433.818 125.44 436.965 123.307 440.591 121.76C444.271 120.213 448.245 119.44 452.511 119.44C456.778 119.44 460.725 120.213 464.351 121.76C468.031 123.307 471.205 125.44 473.871 128.16C476.538 130.827 478.618 134 480.111 137.68C481.658 141.307 482.431 145.2 482.431 149.36C482.431 153.52 481.658 157.44 480.111 161.12C478.618 164.747 476.538 167.92 473.871 170.64C471.205 173.307 468.031 175.413 464.351 176.96C460.725 178.507 456.778 179.28 452.511 179.28ZM452.511 169.04C455.178 169.04 457.658 168.56 459.951 167.6C462.298 166.64 464.325 165.307 466.031 163.6C467.791 161.893 469.151 159.84 470.111 157.44C471.125 154.987 471.631 152.293 471.631 149.36C471.631 146.427 471.125 143.76 470.111 141.36C469.151 138.907 467.791 136.827 466.031 135.12C464.325 133.413 462.298 132.08 459.951 131.12C457.658 130.16 455.178 129.68 452.511 129.68C449.845 129.68 447.338 130.16 444.991 131.12C442.698 132.08 440.671 133.413 438.911 135.12C437.205 136.827 435.845 138.907 434.831 141.36C433.871 143.76 433.391 146.427 433.391 149.36C433.391 152.293 433.871 154.987 434.831 157.44C435.845 159.84 437.205 161.893 438.911 163.6C440.671 165.307 442.698 166.64 444.991 167.6C447.338 168.56 449.845 169.04 452.511 169.04ZM509.093 179.28C506.639 179.28 504.293 178.933 502.053 178.24C499.813 177.547 497.759 176.507 495.893 175.12C494.026 173.733 492.399 172.053 491.013 170.08C489.626 168.053 488.533 165.707 487.733 163.04L497.893 159.04C498.639 161.92 499.946 164.32 501.813 166.24C503.679 168.107 506.133 169.04 509.173 169.04C510.293 169.04 511.359 168.907 512.373 168.64C513.439 168.32 514.373 167.893 515.173 167.36C516.026 166.773 516.693 166.053 517.173 165.2C517.653 164.347 517.893 163.36 517.893 162.24C517.893 161.173 517.706 160.213 517.333 159.36C516.959 158.507 516.319 157.707 515.413 156.96C514.559 156.213 513.413 155.493 511.973 154.8C510.586 154.107 508.853 153.387 506.773 152.64L503.253 151.36C501.706 150.827 500.133 150.107 498.533 149.2C496.986 148.293 495.573 147.2 494.293 145.92C493.013 144.64 491.946 143.147 491.092 141.44C490.293 139.68 489.893 137.707 489.893 135.52C489.893 133.28 490.319 131.2 491.173 129.28C492.079 127.307 493.333 125.6 494.933 124.16C496.586 122.667 498.533 121.52 500.773 120.72C503.066 119.867 505.599 119.44 508.373 119.44C511.253 119.44 513.733 119.84 515.813 120.64C517.946 121.387 519.733 122.373 521.173 123.6C522.666 124.773 523.866 126.08 524.773 127.52C525.679 128.96 526.346 130.32 526.773 131.6L517.253 135.6C516.719 134 515.733 132.56 514.293 131.28C512.906 130 510.986 129.36 508.533 129.36C506.186 129.36 504.239 129.92 502.693 131.04C501.146 132.107 500.373 133.52 500.373 135.28C500.373 136.987 501.119 138.453 502.613 139.68C504.106 140.853 506.479 142 509.733 143.12L513.333 144.32C515.626 145.12 517.706 146.053 519.573 147.12C521.493 148.133 523.119 149.36 524.453 150.8C525.839 152.24 526.879 153.893 527.573 155.76C528.319 157.573 528.693 159.68 528.693 162.08C528.693 165.067 528.079 167.653 526.853 169.84C525.679 171.973 524.159 173.733 522.293 175.12C520.426 176.507 518.319 177.547 515.973 178.24C513.626 178.933 511.333 179.28 509.093 179.28Z" fill="url(#paint2_linear_111_2)"/>
<path d="M770.64 592.64C769.413 592.64 768.24 592.467 767.12 592.12C766 591.773 764.973 591.253 764.04 590.56C763.107 589.867 762.293 589.027 761.6 588.04C760.907 587.027 760.36 585.853 759.96 584.52L765.04 582.52C765.413 583.96 766.067 585.16 767 586.12C767.933 587.053 769.16 587.52 770.68 587.52C771.24 587.52 771.773 587.453 772.28 587.32C772.813 587.16 773.28 586.947 773.68 586.68C774.107 586.387 774.44 586.027 774.68 585.6C774.92 585.173 775.04 584.68 775.04 584.12C775.04 583.587 774.947 583.107 774.76 582.68C774.573 582.253 774.253 581.853 773.8 581.48C773.373 581.107 772.8 580.747 772.08 580.4C771.387 580.053 770.52 579.693 769.48 579.32L767.72 578.68C766.947 578.413 766.16 578.053 765.36 577.6C764.587 577.147 763.88 576.6 763.24 575.96C762.6 575.32 762.067 574.573 761.64 573.72C761.24 572.84 761.04 571.853 761.04 570.76C761.04 569.64 761.253 568.6 761.68 567.64C762.133 566.653 762.76 565.8 763.56 565.08C764.387 564.333 765.36 563.76 766.48 563.36C767.627 562.933 768.893 562.72 770.28 562.72C771.72 562.72 772.96 562.92 774 563.32C775.067 563.693 775.96 564.187 776.68 564.8C777.427 565.387 778.027 566.04 778.48 566.76C778.933 567.48 779.267 568.16 779.48 568.8L774.72 570.8C774.453 570 773.96 569.28 773.24 568.64C772.547 568 771.587 567.68 770.36 567.68C769.187 567.68 768.213 567.96 767.44 568.52C766.667 569.053 766.28 569.76 766.28 570.64C766.28 571.493 766.653 572.227 767.4 572.84C768.147 573.427 769.333 574 770.96 574.56L772.76 575.16C773.907 575.56 774.947 576.027 775.88 576.56C776.84 577.067 777.653 577.68 778.32 578.4C779.013 579.12 779.533 579.947 779.88 580.88C780.253 581.787 780.44 582.84 780.44 584.04C780.44 585.533 780.133 586.827 779.52 587.92C778.933 588.987 778.173 589.867 777.24 590.56C776.307 591.253 775.253 591.773 774.08 592.12C772.907 592.467 771.76 592.64 770.64 592.64ZM785.592 576.88H782.152V572.4H785.592V566.4H790.832V572.4H795.632V576.88H790.832V584.48C790.832 584.933 790.872 585.36 790.952 585.76C791.059 586.133 791.246 586.453 791.512 586.72C791.886 587.147 792.419 587.36 793.112 587.36C793.566 587.36 793.926 587.32 794.192 587.24C794.459 587.133 794.712 587 794.952 586.84L796.432 591.44C795.819 591.733 795.152 591.947 794.432 592.08C793.739 592.24 792.966 592.32 792.112 592.32C791.126 592.32 790.232 592.173 789.432 591.88C788.659 591.56 788.006 591.133 787.472 590.6C786.219 589.4 785.592 587.693 785.592 585.48V576.88ZM808.772 571.76C810.292 571.76 811.678 572.027 812.932 572.56C814.212 573.067 815.305 573.787 816.212 574.72C817.145 575.627 817.865 576.72 818.372 578C818.905 579.28 819.172 580.68 819.172 582.2C819.172 583.72 818.905 585.12 818.372 586.4C817.865 587.68 817.145 588.787 816.212 589.72C815.305 590.627 814.212 591.347 812.932 591.88C811.678 592.387 810.292 592.64 808.772 592.64C807.252 592.64 805.852 592.387 804.572 591.88C803.318 591.347 802.225 590.627 801.292 589.72C800.385 588.787 799.665 587.68 799.132 586.4C798.625 585.12 798.372 583.72 798.372 582.2C798.372 580.68 798.625 579.28 799.132 578C799.665 576.72 800.385 575.627 801.292 574.72C802.225 573.787 803.318 573.067 804.572 572.56C805.852 572.027 807.252 571.76 808.772 571.76ZM808.772 587.8C809.438 587.8 810.078 587.68 810.692 587.44C811.332 587.173 811.892 586.8 812.372 586.32C812.852 585.84 813.225 585.253 813.492 584.56C813.785 583.867 813.932 583.08 813.932 582.2C813.932 581.32 813.785 580.533 813.492 579.84C813.225 579.147 812.852 578.56 812.372 578.08C811.892 577.6 811.332 577.24 810.692 577C810.078 576.733 809.438 576.6 808.772 576.6C808.078 576.6 807.425 576.733 806.812 577C806.198 577.24 805.652 577.6 805.172 578.08C804.692 578.56 804.305 579.147 804.012 579.84C803.745 580.533 803.612 581.32 803.612 582.2C803.612 583.08 803.745 583.867 804.012 584.56C804.305 585.253 804.692 585.84 805.172 586.32C805.652 586.8 806.198 587.173 806.812 587.44C807.425 587.68 808.078 587.8 808.772 587.8ZM841.338 587C840.485 588.653 839.285 590.013 837.738 591.08C836.218 592.12 834.312 592.64 832.018 592.64C830.498 592.64 829.098 592.387 827.818 591.88C826.565 591.347 825.472 590.613 824.538 589.68C823.632 588.747 822.912 587.653 822.378 586.4C821.872 585.12 821.618 583.72 821.618 582.2C821.618 580.68 821.872 579.28 822.378 578C822.912 576.72 823.632 575.627 824.538 574.72C825.472 573.787 826.565 573.067 827.818 572.56C829.098 572.027 830.498 571.76 832.018 571.76C834.285 571.76 836.192 572.28 837.738 573.32C839.285 574.36 840.418 575.707 841.138 577.36L836.338 579.36C835.885 578.453 835.298 577.773 834.578 577.32C833.885 576.84 833.005 576.6 831.938 576.6C831.245 576.6 830.592 576.733 829.978 577C829.365 577.267 828.818 577.64 828.338 578.12C827.885 578.6 827.525 579.187 827.258 579.88C826.992 580.573 826.858 581.347 826.858 582.2C826.858 583.053 826.992 583.827 827.258 584.52C827.525 585.213 827.885 585.8 828.338 586.28C828.818 586.76 829.365 587.133 829.978 587.4C830.592 587.667 831.245 587.8 831.938 587.8C833.032 587.8 833.952 587.56 834.698 587.08C835.472 586.573 836.085 585.853 836.538 584.92L841.338 587ZM844.735 563.36H849.975V578.96H850.215L856.775 572.4H863.255V572.72L855.975 579.8L863.855 591.68V592H857.655L852.295 583.4L849.975 585.68V592H844.735V563.36ZM865.666 595.56L868.026 591.92C867.44 591.707 866.933 591.32 866.506 590.76C866.106 590.2 865.906 589.533 865.906 588.76C865.906 587.8 866.24 586.987 866.906 586.32C867.6 585.653 868.426 585.32 869.386 585.32C870.346 585.32 871.16 585.653 871.826 586.32C872.493 586.987 872.826 587.8 872.826 588.76C872.826 589.267 872.746 589.72 872.586 590.12C872.426 590.493 872.173 590.933 871.826 591.44L868.026 597.12L865.666 595.56ZM899.613 592.64C897.48 592.64 895.493 592.253 893.653 591.48C891.84 590.707 890.267 589.653 888.933 588.32C887.6 586.96 886.547 585.373 885.773 583.56C885.027 581.72 884.653 579.76 884.653 577.68C884.653 575.6 885.027 573.653 885.773 571.84C886.547 570 887.6 568.413 888.933 567.08C890.267 565.72 891.84 564.653 893.653 563.88C895.493 563.107 897.48 562.72 899.613 562.72C901.747 562.72 903.72 563.107 905.533 563.88C907.373 564.653 908.96 565.72 910.293 567.08C911.627 568.413 912.667 570 913.413 571.84C914.187 573.653 914.573 575.6 914.573 577.68C914.573 579.76 914.187 581.72 913.413 583.56C912.667 585.373 911.627 586.96 910.293 588.32C908.96 589.653 907.373 590.707 905.533 591.48C903.72 592.253 901.747 592.64 899.613 592.64ZM899.613 587.52C900.947 587.52 902.187 587.28 903.333 586.8C904.507 586.32 905.52 585.653 906.373 584.8C907.253 583.947 907.933 582.92 908.413 581.72C908.92 580.493 909.173 579.147 909.173 577.68C909.173 576.213 908.92 574.88 908.413 573.68C907.933 572.453 907.253 571.413 906.373 570.56C905.52 569.707 904.507 569.04 903.333 568.56C902.187 568.08 900.947 567.84 899.613 567.84C898.28 567.84 897.027 568.08 895.853 568.56C894.707 569.04 893.693 569.707 892.813 570.56C891.96 571.413 891.28 572.453 890.773 573.68C890.293 574.88 890.053 576.213 890.053 577.68C890.053 579.147 890.293 580.493 890.773 581.72C891.28 582.92 891.96 583.947 892.813 584.8C893.693 585.653 894.707 586.32 895.853 586.8C897.027 587.28 898.28 587.52 899.613 587.52ZM918.344 572.4H923.264V574.76H923.584C924.064 573.933 924.811 573.227 925.824 572.64C926.837 572.053 928.091 571.76 929.584 571.76C930.837 571.76 932.024 572.027 933.144 572.56C934.291 573.067 935.291 573.787 936.144 574.72C937.024 575.627 937.717 576.72 938.224 578C938.731 579.28 938.984 580.68 938.984 582.2C938.984 583.72 938.731 585.12 938.224 586.4C937.717 587.68 937.024 588.787 936.144 589.72C935.291 590.627 934.291 591.347 933.144 591.88C932.024 592.387 930.837 592.64 929.584 592.64C928.091 592.64 926.837 592.347 925.824 591.76C924.811 591.173 924.064 590.467 923.584 589.64H923.264L923.584 592.44V600.64H918.344V572.4ZM928.504 587.8C929.197 587.8 929.851 587.667 930.464 587.4C931.104 587.133 931.664 586.76 932.144 586.28C932.624 585.8 933.011 585.213 933.304 584.52C933.597 583.827 933.744 583.053 933.744 582.2C933.744 581.347 933.597 580.573 933.304 579.88C933.011 579.187 932.624 578.6 932.144 578.12C931.664 577.64 931.104 577.267 930.464 577C929.851 576.733 929.197 576.6 928.504 576.6C927.811 576.6 927.144 576.733 926.504 577C925.891 577.24 925.344 577.6 924.864 578.08C924.384 578.56 923.997 579.147 923.704 579.84C923.411 580.533 923.264 581.32 923.264 582.2C923.264 583.08 923.411 583.867 923.704 584.56C923.997 585.253 924.384 585.84 924.864 586.32C925.344 586.8 925.891 587.173 926.504 587.44C927.144 587.68 927.811 587.8 928.504 587.8ZM943.911 576.88H940.471V572.4H943.911V566.4H949.151V572.4H953.951V576.88H949.151V584.48C949.151 584.933 949.191 585.36 949.271 585.76C949.378 586.133 949.564 586.453 949.831 586.72C950.204 587.147 950.738 587.36 951.431 587.36C951.884 587.36 952.244 587.32 952.511 587.24C952.778 587.133 953.031 587 953.271 586.84L954.751 591.44C954.138 591.733 953.471 591.947 952.751 592.08C952.058 592.24 951.284 592.32 950.431 592.32C949.444 592.32 948.551 592.173 947.751 591.88C946.978 591.56 946.324 591.133 945.791 590.6C944.538 589.4 943.911 587.693 943.911 585.48V576.88ZM961.121 569.56C960.668 569.56 960.228 569.48 959.801 569.32C959.401 569.133 959.041 568.893 958.721 568.6C958.428 568.28 958.188 567.92 958.001 567.52C957.841 567.12 957.761 566.68 957.761 566.2C957.761 565.72 957.841 565.28 958.001 564.88C958.188 564.48 958.428 564.133 958.721 563.84C959.041 563.52 959.401 563.28 959.801 563.12C960.228 562.933 960.668 562.84 961.121 562.84C962.054 562.84 962.854 563.173 963.521 563.84C964.188 564.48 964.521 565.267 964.521 566.2C964.521 567.133 964.188 567.933 963.521 568.6C962.854 569.24 962.054 569.56 961.121 569.56ZM958.521 592V572.4H963.761V592H958.521ZM968.752 572.4H973.672V574.96H973.992C974.606 574 975.432 573.227 976.472 572.64C977.539 572.053 978.712 571.76 979.992 571.76C981.486 571.76 982.739 572.107 983.752 572.8C984.766 573.493 985.486 574.347 985.912 575.36C986.526 574.373 987.392 573.533 988.512 572.84C989.632 572.12 990.992 571.76 992.592 571.76C993.792 571.76 994.832 571.96 995.712 572.36C996.592 572.733 997.312 573.267 997.872 573.96C998.459 574.653 998.899 575.493 999.192 576.48C999.486 577.44 999.632 578.493 999.632 579.64V592H994.392V580.6C994.392 577.933 993.299 576.6 991.112 576.6C990.419 576.6 989.806 576.76 989.272 577.08C988.739 577.373 988.286 577.787 987.912 578.32C987.566 578.827 987.286 579.44 987.072 580.16C986.886 580.88 986.792 581.653 986.792 582.48V592H981.552V580.6C981.552 577.933 980.406 576.6 978.112 576.6C977.446 576.6 976.859 576.76 976.352 577.08C975.846 577.373 975.419 577.787 975.072 578.32C974.726 578.827 974.459 579.44 974.272 580.16C974.086 580.88 973.992 581.653 973.992 582.48V592H968.752V572.4ZM1007.07 569.56C1006.61 569.56 1006.17 569.48 1005.75 569.32C1005.35 569.133 1004.99 568.893 1004.67 568.6C1004.37 568.28 1004.13 567.92 1003.95 567.52C1003.79 567.12 1003.71 566.68 1003.71 566.2C1003.71 565.72 1003.79 565.28 1003.95 564.88C1004.13 564.48 1004.37 564.133 1004.67 563.84C1004.99 563.52 1005.35 563.28 1005.75 563.12C1006.17 562.933 1006.61 562.84 1007.07 562.84C1008 562.84 1008.8 563.173 1009.47 563.84C1010.13 564.48 1010.47 565.267 1010.47 566.2C1010.47 567.133 1010.13 567.933 1009.47 568.6C1008.8 569.24 1008 569.56 1007.07 569.56ZM1004.47 592V572.4H1009.71V592H1004.47ZM1013.74 587.68L1023.74 576.88H1014.06V572.4H1030.18V576.72L1020.18 587.52H1030.34V592H1013.74V587.68ZM1045.73 589.92H1045.41C1044.8 590.667 1044.05 591.307 1043.17 591.84C1042.32 592.373 1041.21 592.64 1039.85 592.64C1038.84 592.64 1037.88 592.467 1036.97 592.12C1036.09 591.8 1035.32 591.347 1034.65 590.76C1033.98 590.173 1033.46 589.467 1033.09 588.64C1032.72 587.813 1032.53 586.907 1032.53 585.92C1032.53 584.907 1032.73 584 1033.13 583.2C1033.53 582.373 1034.09 581.667 1034.81 581.08C1035.53 580.493 1036.37 580.053 1037.33 579.76C1038.32 579.44 1039.38 579.28 1040.53 579.28C1041.81 579.28 1042.86 579.387 1043.69 579.6C1044.52 579.787 1045.2 579.987 1045.73 580.2V579.6C1045.73 578.56 1045.32 577.707 1044.49 577.04C1043.66 576.347 1042.64 576 1041.41 576C1039.6 576 1038.06 576.76 1036.81 578.28L1033.01 575.68C1035.09 573.067 1037.93 571.76 1041.53 571.76C1044.57 571.76 1046.89 572.48 1048.49 573.92C1050.09 575.333 1050.89 577.44 1050.89 580.24V592H1045.73V589.92ZM1045.73 584.04C1045.12 583.747 1044.48 583.52 1043.81 583.36C1043.17 583.173 1042.46 583.08 1041.69 583.08C1040.44 583.08 1039.46 583.36 1038.77 583.92C1038.1 584.453 1037.77 585.12 1037.77 585.92C1037.77 586.72 1038.09 587.36 1038.73 587.84C1039.4 588.32 1040.16 588.56 1041.01 588.56C1041.7 588.56 1042.34 588.44 1042.93 588.2C1043.52 587.933 1044.01 587.6 1044.41 587.2C1044.84 586.773 1045.16 586.293 1045.37 585.76C1045.61 585.2 1045.73 584.627 1045.73 584.04ZM1057.03 576.88H1053.59V572.4H1057.03V566.4H1062.27V572.4H1067.07V576.88H1062.27V584.48C1062.27 584.933 1062.31 585.36 1062.39 585.76C1062.49 586.133 1062.68 586.453 1062.95 586.72C1063.32 587.147 1063.85 587.36 1064.55 587.36C1065 587.36 1065.36 587.32 1065.63 587.24C1065.89 587.133 1066.15 587 1066.39 586.84L1067.87 591.44C1067.25 591.733 1066.59 591.947 1065.87 592.08C1065.17 592.24 1064.4 592.32 1063.55 592.32C1062.56 592.32 1061.67 592.173 1060.87 591.88C1060.09 591.56 1059.44 591.133 1058.91 590.6C1057.65 589.4 1057.03 587.693 1057.03 585.48V576.88ZM1074.24 569.56C1073.78 569.56 1073.34 569.48 1072.92 569.32C1072.52 569.133 1072.16 568.893 1071.84 568.6C1071.54 568.28 1071.3 567.92 1071.12 567.52C1070.96 567.12 1070.88 566.68 1070.88 566.2C1070.88 565.72 1070.96 565.28 1071.12 564.88C1071.3 564.48 1071.54 564.133 1071.84 563.84C1072.16 563.52 1072.52 563.28 1072.92 563.12C1073.34 562.933 1073.78 562.84 1074.24 562.84C1075.17 562.84 1075.97 563.173 1076.64 563.84C1077.3 564.48 1077.64 565.267 1077.64 566.2C1077.64 567.133 1077.3 567.933 1076.64 568.6C1075.97 569.24 1075.17 569.56 1074.24 569.56ZM1071.64 592V572.4H1076.88V592H1071.64ZM1090.95 571.76C1092.47 571.76 1093.86 572.027 1095.11 572.56C1096.39 573.067 1097.48 573.787 1098.39 574.72C1099.32 575.627 1100.04 576.72 1100.55 578C1101.08 579.28 1101.35 580.68 1101.35 582.2C1101.35 583.72 1101.08 585.12 1100.55 586.4C1100.04 587.68 1099.32 588.787 1098.39 589.72C1097.48 590.627 1096.39 591.347 1095.11 591.88C1093.86 592.387 1092.47 592.64 1090.95 592.64C1089.43 592.64 1088.03 592.387 1086.75 591.88C1085.5 591.347 1084.4 590.627 1083.47 589.72C1082.56 588.787 1081.84 587.68 1081.31 586.4C1080.8 585.12 1080.55 583.72 1080.55 582.2C1080.55 580.68 1080.8 579.28 1081.31 578C1081.84 576.72 1082.56 575.627 1083.47 574.72C1084.4 573.787 1085.5 573.067 1086.75 572.56C1088.03 572.027 1089.43 571.76 1090.95 571.76ZM1090.95 587.8C1091.62 587.8 1092.26 587.68 1092.87 587.44C1093.51 587.173 1094.07 586.8 1094.55 586.32C1095.03 585.84 1095.4 585.253 1095.67 584.56C1095.96 583.867 1096.11 583.08 1096.11 582.2C1096.11 581.32 1095.96 580.533 1095.67 579.84C1095.4 579.147 1095.03 578.56 1094.55 578.08C1094.07 577.6 1093.51 577.24 1092.87 577C1092.26 576.733 1091.62 576.6 1090.95 576.6C1090.26 576.6 1089.6 576.733 1088.99 577C1088.38 577.24 1087.83 577.6 1087.35 578.08C1086.87 578.56 1086.48 579.147 1086.19 579.84C1085.92 580.533 1085.79 581.32 1085.79 582.2C1085.79 583.08 1085.92 583.867 1086.19 584.56C1086.48 585.253 1086.87 585.84 1087.35 586.32C1087.83 586.8 1088.38 587.173 1088.99 587.44C1089.6 587.68 1090.26 587.8 1090.95 587.8ZM1109.45 574.96H1109.77C1110.38 573.973 1111.21 573.2 1112.25 572.64C1113.29 572.053 1114.47 571.76 1115.81 571.76C1117.03 571.76 1118.11 571.96 1119.05 572.36C1119.98 572.76 1120.74 573.333 1121.33 574.08C1121.94 574.8 1122.39 575.68 1122.69 576.72C1123.01 577.733 1123.17 578.867 1123.17 580.12V592H1117.93V580.76C1117.93 579.347 1117.61 578.307 1116.97 577.64C1116.35 576.947 1115.45 576.6 1114.25 576.6C1113.53 576.6 1112.89 576.76 1112.33 577.08C1111.79 577.373 1111.33 577.787 1110.93 578.32C1110.55 578.827 1110.26 579.44 1110.05 580.16C1109.86 580.853 1109.77 581.6 1109.77 582.4V592H1104.53V572.4H1109.45V574.96ZM1127.22 595.56L1129.58 591.92C1128.99 591.707 1128.48 591.32 1128.06 590.76C1127.66 590.2 1127.46 589.533 1127.46 588.76C1127.46 587.8 1127.79 586.987 1128.46 586.32C1129.15 585.653 1129.98 585.32 1130.94 585.32C1131.9 585.32 1132.71 585.653 1133.38 586.32C1134.04 586.987 1134.38 587.8 1134.38 588.76C1134.38 589.267 1134.3 589.72 1134.14 590.12C1133.98 590.493 1133.72 590.933 1133.38 591.44L1129.58 597.12L1127.22 595.56ZM1148.38 563.36H1166.54V568.48H1153.78V575.44H1165.26V580.56H1153.78V592H1148.38V563.36ZM1181.55 589.92H1181.23C1180.61 590.667 1179.87 591.307 1178.99 591.84C1178.13 592.373 1177.03 592.64 1175.67 592.64C1174.65 592.64 1173.69 592.467 1172.79 592.12C1171.91 591.8 1171.13 591.347 1170.47 590.76C1169.8 590.173 1169.28 589.467 1168.91 588.64C1168.53 587.813 1168.35 586.907 1168.35 585.92C1168.35 584.907 1168.55 584 1168.95 583.2C1169.35 582.373 1169.91 581.667 1170.63 581.08C1171.35 580.493 1172.19 580.053 1173.15 579.76C1174.13 579.44 1175.2 579.28 1176.35 579.28C1177.63 579.28 1178.68 579.387 1179.51 579.6C1180.33 579.787 1181.01 579.987 1181.55 580.2V579.6C1181.55 578.56 1181.13 577.707 1180.31 577.04C1179.48 576.347 1178.45 576 1177.23 576C1175.41 576 1173.88 576.76 1172.63 578.28L1168.83 575.68C1170.91 573.067 1173.75 571.76 1177.35 571.76C1180.39 571.76 1182.71 572.48 1184.31 573.92C1185.91 575.333 1186.71 577.44 1186.71 580.24V592H1181.55V589.92ZM1181.55 584.04C1180.93 583.747 1180.29 583.52 1179.63 583.36C1178.99 583.173 1178.28 583.08 1177.51 583.08C1176.25 583.08 1175.28 583.36 1174.59 583.92C1173.92 584.453 1173.59 585.12 1173.59 585.92C1173.59 586.72 1173.91 587.36 1174.55 587.84C1175.21 588.32 1175.97 588.56 1176.83 588.56C1177.52 588.56 1178.16 588.44 1178.75 588.2C1179.33 587.933 1179.83 587.6 1180.23 587.2C1180.65 586.773 1180.97 586.293 1181.19 585.76C1181.43 585.2 1181.55 584.627 1181.55 584.04ZM1198.64 592.64C1197.36 592.64 1196.21 592.48 1195.2 592.16C1194.21 591.84 1193.35 591.427 1192.6 590.92C1191.88 590.387 1191.27 589.787 1190.76 589.12C1190.25 588.427 1189.87 587.733 1189.6 587.04L1194.28 585.04C1194.73 586.053 1195.33 586.813 1196.08 587.32C1196.85 587.8 1197.71 588.04 1198.64 588.04C1199.6 588.04 1200.36 587.867 1200.92 587.52C1201.48 587.173 1201.76 586.76 1201.76 586.28C1201.76 585.747 1201.52 585.32 1201.04 585C1200.59 584.653 1199.79 584.347 1198.64 584.08L1195.88 583.48C1195.27 583.347 1194.63 583.133 1193.96 582.84C1193.32 582.547 1192.73 582.173 1192.2 581.72C1191.67 581.267 1191.23 580.72 1190.88 580.08C1190.53 579.44 1190.36 578.693 1190.36 577.84C1190.36 576.88 1190.56 576.027 1190.96 575.28C1191.39 574.533 1191.96 573.907 1192.68 573.4C1193.4 572.867 1194.24 572.467 1195.2 572.2C1196.19 571.907 1197.24 571.76 1198.36 571.76C1200.23 571.76 1201.89 572.133 1203.36 572.88C1204.83 573.6 1205.91 574.76 1206.6 576.36L1202.08 578.2C1201.71 577.427 1201.16 576.867 1200.44 576.52C1199.72 576.173 1199 576 1198.28 576C1197.53 576 1196.88 576.16 1196.32 576.48C1195.76 576.773 1195.48 577.16 1195.48 577.64C1195.48 578.093 1195.71 578.453 1196.16 578.72C1196.64 578.987 1197.28 579.227 1198.08 579.44L1201.08 580.16C1203.08 580.64 1204.56 581.413 1205.52 582.48C1206.51 583.52 1207 584.76 1207 586.2C1207 587.053 1206.8 587.867 1206.4 588.64C1206 589.413 1205.43 590.107 1204.68 590.72C1203.96 591.307 1203.08 591.773 1202.04 592.12C1201.03 592.467 1199.89 592.64 1198.64 592.64ZM1212.38 576.88H1208.94V572.4H1212.38V566.4H1217.62V572.4H1222.42V576.88H1217.62V584.48C1217.62 584.933 1217.66 585.36 1217.74 585.76C1217.85 586.133 1218.03 586.453 1218.3 586.72C1218.67 587.147 1219.21 587.36 1219.9 587.36C1220.35 587.36 1220.71 587.32 1220.98 587.24C1221.25 587.133 1221.5 587 1221.74 586.84L1223.22 591.44C1222.61 591.733 1221.94 591.947 1221.22 592.08C1220.53 592.24 1219.75 592.32 1218.9 592.32C1217.91 592.32 1217.02 592.173 1216.22 591.88C1215.45 591.56 1214.79 591.133 1214.26 590.6C1213.01 589.4 1212.38 587.693 1212.38 585.48V576.88ZM1229.63 592.24C1228.67 592.24 1227.85 591.907 1227.15 591.24C1226.49 590.547 1226.15 589.72 1226.15 588.76C1226.15 587.8 1226.49 586.987 1227.15 586.32C1227.85 585.653 1228.67 585.32 1229.63 585.32C1230.59 585.32 1231.41 585.653 1232.07 586.32C1232.74 586.987 1233.07 587.8 1233.07 588.76C1233.07 589.72 1232.74 590.547 1232.07 591.24C1231.41 591.907 1230.59 592.24 1229.63 592.24ZM1240.58 592.24C1239.62 592.24 1238.79 591.907 1238.1 591.24C1237.43 590.547 1237.1 589.72 1237.1 588.76C1237.1 587.8 1237.43 586.987 1238.1 586.32C1238.79 585.653 1239.62 585.32 1240.58 585.32C1241.54 585.32 1242.35 585.653 1243.02 586.32C1243.68 586.987 1244.02 587.8 1244.02 588.76C1244.02 589.72 1243.68 590.547 1243.02 591.24C1242.35 591.907 1241.54 592.24 1240.58 592.24ZM1251.52 592.24C1250.56 592.24 1249.73 591.907 1249.04 591.24C1248.37 590.547 1248.04 589.72 1248.04 588.76C1248.04 587.8 1248.37 586.987 1249.04 586.32C1249.73 585.653 1250.56 585.32 1251.52 585.32C1252.48 585.32 1253.29 585.653 1253.96 586.32C1254.63 586.987 1254.96 587.8 1254.96 588.76C1254.96 589.72 1254.63 590.547 1253.96 591.24C1253.29 591.907 1252.48 592.24 1251.52 592.24ZM1270.45 576.88H1267.01V572.4H1270.45V566.4H1275.69V572.4H1280.49V576.88H1275.69V584.48C1275.69 584.933 1275.73 585.36 1275.81 585.76C1275.92 586.133 1276.1 586.453 1276.37 586.72C1276.74 587.147 1277.28 587.36 1277.97 587.36C1278.42 587.36 1278.78 587.32 1279.05 587.24C1279.32 587.133 1279.57 587 1279.81 586.84L1281.29 591.44C1280.68 591.733 1280.01 591.947 1279.29 592.08C1278.6 592.24 1277.82 592.32 1276.97 592.32C1275.98 592.32 1275.09 592.173 1274.29 591.88C1273.52 591.56 1272.86 591.133 1272.33 590.6C1271.08 589.4 1270.45 587.693 1270.45 585.48V576.88ZM1284.74 563.36H1289.98V571.4L1289.66 574.96H1289.98C1290.54 574.027 1291.34 573.267 1292.38 572.68C1293.45 572.067 1294.63 571.76 1295.94 571.76C1298.47 571.76 1300.34 572.507 1301.54 574C1302.77 575.493 1303.38 577.533 1303.38 580.12V592H1298.14V580.76C1298.14 579.4 1297.82 578.373 1297.18 577.68C1296.54 576.96 1295.65 576.6 1294.5 576.6C1293.78 576.6 1293.14 576.76 1292.58 577.08C1292.02 577.373 1291.54 577.787 1291.14 578.32C1290.77 578.853 1290.47 579.48 1290.26 580.2C1290.07 580.893 1289.98 581.64 1289.98 582.44V592H1284.74V563.36ZM1319.79 589.92H1319.47C1318.86 590.667 1318.11 591.307 1317.23 591.84C1316.38 592.373 1315.27 592.64 1313.91 592.64C1312.9 592.64 1311.94 592.467 1311.03 592.12C1310.15 591.8 1309.38 591.347 1308.71 590.76C1308.05 590.173 1307.53 589.467 1307.15 588.64C1306.78 587.813 1306.59 586.907 1306.59 585.92C1306.59 584.907 1306.79 584 1307.19 583.2C1307.59 582.373 1308.15 581.667 1308.87 581.08C1309.59 580.493 1310.43 580.053 1311.39 579.76C1312.38 579.44 1313.45 579.28 1314.59 579.28C1315.87 579.28 1316.93 579.387 1317.75 579.6C1318.58 579.787 1319.26 579.987 1319.79 580.2V579.6C1319.79 578.56 1319.38 577.707 1318.55 577.04C1317.73 576.347 1316.7 576 1315.47 576C1313.66 576 1312.13 576.76 1310.87 578.28L1307.07 575.68C1309.15 573.067 1311.99 571.76 1315.59 571.76C1318.63 571.76 1320.95 572.48 1322.55 573.92C1324.15 575.333 1324.95 577.44 1324.95 580.24V592H1319.79V589.92ZM1319.79 584.04C1319.18 583.747 1318.54 583.52 1317.87 583.36C1317.23 583.173 1316.53 583.08 1315.75 583.08C1314.5 583.08 1313.53 583.36 1312.83 583.92C1312.17 584.453 1311.83 585.12 1311.83 585.92C1311.83 586.72 1312.15 587.36 1312.79 587.84C1313.46 588.32 1314.22 588.56 1315.07 588.56C1315.77 588.56 1316.41 588.44 1316.99 588.2C1317.58 587.933 1318.07 587.6 1318.47 587.2C1318.9 586.773 1319.22 586.293 1319.43 585.76C1319.67 585.2 1319.79 584.627 1319.79 584.04ZM1331.09 576.88H1327.65V572.4H1331.09V566.4H1336.33V572.4H1341.13V576.88H1336.33V584.48C1336.33 584.933 1336.37 585.36 1336.45 585.76C1336.56 586.133 1336.74 586.453 1337.01 586.72C1337.38 587.147 1337.92 587.36 1338.61 587.36C1339.06 587.36 1339.42 587.32 1339.69 587.24C1339.96 587.133 1340.21 587 1340.45 586.84L1341.93 591.44C1341.32 591.733 1340.65 591.947 1339.93 592.08C1339.24 592.24 1338.46 592.32 1337.61 592.32C1336.62 592.32 1335.73 592.173 1334.93 591.88C1334.16 591.56 1333.5 591.133 1332.97 590.6C1331.72 589.4 1331.09 587.693 1331.09 585.48V576.88ZM1344.94 572.44L1346.98 569.32C1346.4 569.107 1345.89 568.733 1345.46 568.2C1345.06 567.64 1344.86 566.973 1344.86 566.2C1344.86 565.24 1345.2 564.427 1345.86 563.76C1346.56 563.067 1347.38 562.72 1348.34 562.72C1349.3 562.72 1350.12 563.067 1350.78 563.76C1351.45 564.427 1351.78 565.24 1351.78 566.2C1351.78 566.707 1351.69 567.16 1351.5 567.56C1351.34 567.96 1351.1 568.387 1350.78 568.84L1347.3 574L1344.94 572.44ZM1361.89 592.64C1360.61 592.64 1359.47 592.48 1358.45 592.16C1357.47 591.84 1356.6 591.427 1355.85 590.92C1355.13 590.387 1354.52 589.787 1354.01 589.12C1353.51 588.427 1353.12 587.733 1352.85 587.04L1357.53 585.04C1357.99 586.053 1358.59 586.813 1359.33 587.32C1360.11 587.8 1360.96 588.04 1361.89 588.04C1362.85 588.04 1363.61 587.867 1364.17 587.52C1364.73 587.173 1365.01 586.76 1365.01 586.28C1365.01 585.747 1364.77 585.32 1364.29 585C1363.84 584.653 1363.04 584.347 1361.89 584.08L1359.13 583.48C1358.52 583.347 1357.88 583.133 1357.21 582.84C1356.57 582.547 1355.99 582.173 1355.45 581.72C1354.92 581.267 1354.48 580.72 1354.13 580.08C1353.79 579.44 1353.61 578.693 1353.61 577.84C1353.61 576.88 1353.81 576.027 1354.21 575.28C1354.64 574.533 1355.21 573.907 1355.93 573.4C1356.65 572.867 1357.49 572.467 1358.45 572.2C1359.44 571.907 1360.49 571.76 1361.61 571.76C1363.48 571.76 1365.15 572.133 1366.61 572.88C1368.08 573.6 1369.16 574.76 1369.85 576.36L1365.33 578.2C1364.96 577.427 1364.41 576.867 1363.69 576.52C1362.97 576.173 1362.25 576 1361.53 576C1360.79 576 1360.13 576.16 1359.57 576.48C1359.01 576.773 1358.73 577.16 1358.73 577.64C1358.73 578.093 1358.96 578.453 1359.41 578.72C1359.89 578.987 1360.53 579.227 1361.33 579.44L1364.33 580.16C1366.33 580.64 1367.81 581.413 1368.77 582.48C1369.76 583.52 1370.25 584.76 1370.25 586.2C1370.25 587.053 1370.05 587.867 1369.65 588.64C1369.25 589.413 1368.68 590.107 1367.93 590.72C1367.21 591.307 1366.33 591.773 1365.29 592.12C1364.28 592.467 1363.15 592.64 1361.89 592.64ZM1380.58 572.4H1386.46L1389.7 584.68H1389.98L1393.86 572.4H1399.26L1403.18 584.68H1403.46L1406.66 572.4H1412.46L1406.18 592H1400.54L1396.62 579.64H1396.34L1392.42 592H1386.86L1380.58 572.4ZM1415.05 563.36H1420.29V571.4L1419.97 574.96H1420.29C1420.85 574.027 1421.65 573.267 1422.69 572.68C1423.75 572.067 1424.94 571.76 1426.25 571.76C1428.78 571.76 1430.65 572.507 1431.85 574C1433.07 575.493 1433.69 577.533 1433.69 580.12V592H1428.45V580.76C1428.45 579.4 1428.13 578.373 1427.49 577.68C1426.85 576.96 1425.95 576.6 1424.81 576.6C1424.09 576.6 1423.45 576.76 1422.89 577.08C1422.33 577.373 1421.85 577.787 1421.45 578.32C1421.07 578.853 1420.78 579.48 1420.57 580.2C1420.38 580.893 1420.29 581.64 1420.29 582.44V592H1415.05V563.36ZM1443.98 591.04L1435.74 572.4H1441.7L1446.66 584.28H1446.94L1451.7 572.4H1457.54L1445.26 600.64H1439.62L1443.98 591.04ZM1475.28 591.04L1467.04 572.4H1473L1477.96 584.28H1478.24L1483 572.4H1488.84L1476.56 600.64H1470.92L1475.28 591.04ZM1499.93 571.76C1501.45 571.76 1502.84 572.027 1504.09 572.56C1505.37 573.067 1506.46 573.787 1507.37 574.72C1508.3 575.627 1509.02 576.72 1509.53 578C1510.06 579.28 1510.33 580.68 1510.33 582.2C1510.33 583.72 1510.06 585.12 1509.53 586.4C1509.02 587.68 1508.3 588.787 1507.37 589.72C1506.46 590.627 1505.37 591.347 1504.09 591.88C1502.84 592.387 1501.45 592.64 1499.93 592.64C1498.41 592.64 1497.01 592.387 1495.73 591.88C1494.48 591.347 1493.38 590.627 1492.45 589.72C1491.54 588.787 1490.82 587.68 1490.29 586.4C1489.78 585.12 1489.53 583.72 1489.53 582.2C1489.53 580.68 1489.78 579.28 1490.29 578C1490.82 576.72 1491.54 575.627 1492.45 574.72C1493.38 573.787 1494.48 573.067 1495.73 572.56C1497.01 572.027 1498.41 571.76 1499.93 571.76ZM1499.93 587.8C1500.6 587.8 1501.24 587.68 1501.85 587.44C1502.49 587.173 1503.05 586.8 1503.53 586.32C1504.01 585.84 1504.38 585.253 1504.65 584.56C1504.94 583.867 1505.09 583.08 1505.09 582.2C1505.09 581.32 1504.94 580.533 1504.65 579.84C1504.38 579.147 1504.01 578.56 1503.53 578.08C1503.05 577.6 1502.49 577.24 1501.85 577C1501.24 576.733 1500.6 576.6 1499.93 576.6C1499.24 576.6 1498.58 576.733 1497.97 577C1497.36 577.24 1496.81 577.6 1496.33 578.08C1495.85 578.56 1495.46 579.147 1495.17 579.84C1494.9 580.533 1494.77 581.32 1494.77 582.2C1494.77 583.08 1494.9 583.867 1495.17 584.56C1495.46 585.253 1495.85 585.84 1496.33 586.32C1496.81 586.8 1497.36 587.173 1497.97 587.44C1498.58 587.68 1499.24 587.8 1499.93 587.8ZM1527.26 589.44H1526.94C1526.33 590.427 1525.5 591.213 1524.46 591.8C1523.42 592.36 1522.24 592.64 1520.9 592.64C1518.42 592.64 1516.57 591.88 1515.34 590.36C1514.14 588.84 1513.54 586.813 1513.54 584.28V572.4H1518.78V583.64C1518.78 585.053 1519.09 586.107 1519.7 586.8C1520.34 587.467 1521.26 587.8 1522.46 587.8C1523.18 587.8 1523.81 587.653 1524.34 587.36C1524.9 587.04 1525.37 586.627 1525.74 586.12C1526.14 585.587 1526.44 584.973 1526.62 584.28C1526.84 583.56 1526.94 582.8 1526.94 582V572.4H1532.18V592H1527.26V589.44ZM1545.86 572.4H1550.78V574.96H1551.1C1551.71 574 1552.54 573.227 1553.58 572.64C1554.65 572.053 1555.82 571.76 1557.1 571.76C1558.59 571.76 1559.85 572.107 1560.86 572.8C1561.87 573.493 1562.59 574.347 1563.02 575.36C1563.63 574.373 1564.5 573.533 1565.62 572.84C1566.74 572.12 1568.1 571.76 1569.7 571.76C1570.9 571.76 1571.94 571.96 1572.82 572.36C1573.7 572.733 1574.42 573.267 1574.98 573.96C1575.57 574.653 1576.01 575.493 1576.3 576.48C1576.59 577.44 1576.74 578.493 1576.74 579.64V592H1571.5V580.6C1571.5 577.933 1570.41 576.6 1568.22 576.6C1567.53 576.6 1566.91 576.76 1566.38 577.08C1565.85 577.373 1565.39 577.787 1565.02 578.32C1564.67 578.827 1564.39 579.44 1564.18 580.16C1563.99 580.88 1563.9 581.653 1563.9 582.48V592H1558.66V580.6C1558.66 577.933 1557.51 576.6 1555.22 576.6C1554.55 576.6 1553.97 576.76 1553.46 577.08C1552.95 577.373 1552.53 577.787 1552.18 578.32C1551.83 578.827 1551.57 579.44 1551.38 580.16C1551.19 580.88 1551.1 581.653 1551.1 582.48V592H1545.86V572.4ZM1594.82 589.44H1594.5C1593.88 590.427 1593.06 591.213 1592.02 591.8C1590.98 592.36 1589.79 592.64 1588.46 592.64C1585.98 592.64 1584.12 591.88 1582.9 590.36C1581.7 588.84 1581.1 586.813 1581.1 584.28V572.4H1586.34V583.64C1586.34 585.053 1586.64 586.107 1587.26 586.8C1587.9 587.467 1588.82 587.8 1590.02 587.8C1590.74 587.8 1591.36 587.653 1591.9 587.36C1592.46 587.04 1592.92 586.627 1593.3 586.12C1593.7 585.587 1593.99 584.973 1594.18 584.28C1594.39 583.56 1594.5 582.8 1594.5 582V572.4H1599.74V592H1594.82V589.44ZM1611.99 592.64C1610.71 592.64 1609.56 592.48 1608.55 592.16C1607.56 591.84 1606.7 591.427 1605.95 590.92C1605.23 590.387 1604.62 589.787 1604.11 589.12C1603.6 588.427 1603.22 587.733 1602.95 587.04L1607.63 585.04C1608.08 586.053 1608.68 586.813 1609.43 587.32C1610.2 587.8 1611.06 588.04 1611.99 588.04C1612.95 588.04 1613.71 587.867 1614.27 587.52C1614.83 587.173 1615.11 586.76 1615.11 586.28C1615.11 585.747 1614.87 585.32 1614.39 585C1613.94 584.653 1613.14 584.347 1611.99 584.08L1609.23 583.48C1608.62 583.347 1607.98 583.133 1607.31 582.84C1606.67 582.547 1606.08 582.173 1605.55 581.72C1605.02 581.267 1604.58 580.72 1604.23 580.08C1603.88 579.44 1603.71 578.693 1603.71 577.84C1603.71 576.88 1603.91 576.027 1604.31 575.28C1604.74 574.533 1605.31 573.907 1606.03 573.4C1606.75 572.867 1607.59 572.467 1608.55 572.2C1609.54 571.907 1610.59 571.76 1611.71 571.76C1613.58 571.76 1615.24 572.133 1616.71 572.88C1618.18 573.6 1619.26 574.76 1619.95 576.36L1615.43 578.2C1615.06 577.427 1614.51 576.867 1613.79 576.52C1613.07 576.173 1612.35 576 1611.63 576C1610.88 576 1610.23 576.16 1609.67 576.48C1609.11 576.773 1608.83 577.16 1608.83 577.64C1608.83 578.093 1609.06 578.453 1609.51 578.72C1609.99 578.987 1610.63 579.227 1611.43 579.44L1614.43 580.16C1616.43 580.64 1617.91 581.413 1618.87 582.48C1619.86 583.52 1620.35 584.76 1620.35 586.2C1620.35 587.053 1620.15 587.867 1619.75 588.64C1619.35 589.413 1618.78 590.107 1618.03 590.72C1617.31 591.307 1616.43 591.773 1615.39 592.12C1614.38 592.467 1613.24 592.64 1611.99 592.64ZM1625.73 576.88H1622.29V572.4H1625.73V566.4H1630.97V572.4H1635.77V576.88H1630.97V584.48C1630.97 584.933 1631.01 585.36 1631.09 585.76C1631.2 586.133 1631.38 586.453 1631.65 586.72C1632.02 587.147 1632.56 587.36 1633.25 587.36C1633.7 587.36 1634.06 587.32 1634.33 587.24C1634.6 587.133 1634.85 587 1635.09 586.84L1636.57 591.44C1635.96 591.733 1635.29 591.947 1634.57 592.08C1633.88 592.24 1633.1 592.32 1632.25 592.32C1631.26 592.32 1630.37 592.173 1629.57 591.88C1628.8 591.56 1628.14 591.133 1627.61 590.6C1626.36 589.4 1625.73 587.693 1625.73 585.48V576.88ZM1648.81 563.36H1654.05V571.4L1653.73 574.96H1654.05C1654.61 574.027 1655.41 573.267 1656.45 572.68C1657.52 572.067 1658.71 571.76 1660.01 571.76C1662.55 571.76 1664.41 572.507 1665.61 574C1666.84 575.493 1667.45 577.533 1667.45 580.12V592H1662.21V580.76C1662.21 579.4 1661.89 578.373 1661.25 577.68C1660.61 576.96 1659.72 576.6 1658.57 576.6C1657.85 576.6 1657.21 576.76 1656.65 577.08C1656.09 577.373 1655.61 577.787 1655.21 578.32C1654.84 578.853 1654.55 579.48 1654.33 580.2C1654.15 580.893 1654.05 581.64 1654.05 582.44V592H1648.81V563.36ZM1683.87 589.92H1683.55C1682.93 590.667 1682.19 591.307 1681.31 591.84C1680.45 592.373 1679.35 592.64 1677.99 592.64C1676.97 592.64 1676.01 592.467 1675.11 592.12C1674.23 591.8 1673.45 591.347 1672.79 590.76C1672.12 590.173 1671.6 589.467 1671.23 588.64C1670.85 587.813 1670.67 586.907 1670.67 585.92C1670.67 584.907 1670.87 584 1671.27 583.2C1671.67 582.373 1672.23 581.667 1672.95 581.08C1673.67 580.493 1674.51 580.053 1675.47 579.76C1676.45 579.44 1677.52 579.28 1678.67 579.28C1679.95 579.28 1681 579.387 1681.83 579.6C1682.65 579.787 1683.33 579.987 1683.87 580.2V579.6C1683.87 578.56 1683.45 577.707 1682.63 577.04C1681.8 576.347 1680.77 576 1679.55 576C1677.73 576 1676.2 576.76 1674.95 578.28L1671.15 575.68C1673.23 573.067 1676.07 571.76 1679.67 571.76C1682.71 571.76 1685.03 572.48 1686.63 573.92C1688.23 575.333 1689.03 577.44 1689.03 580.24V592H1683.87V589.92ZM1683.87 584.04C1683.25 583.747 1682.61 583.52 1681.95 583.36C1681.31 583.173 1680.6 583.08 1679.83 583.08C1678.57 583.08 1677.6 583.36 1676.91 583.92C1676.24 584.453 1675.91 585.12 1675.91 585.92C1675.91 586.72 1676.23 587.36 1676.87 587.84C1677.53 588.32 1678.29 588.56 1679.15 588.56C1679.84 588.56 1680.48 588.44 1681.07 588.2C1681.65 587.933 1682.15 587.6 1682.55 587.2C1682.97 586.773 1683.29 586.293 1683.51 585.76C1683.75 585.2 1683.87 584.627 1683.87 584.04ZM1690.92 572.4H1696.88L1701.76 584.88H1702.04L1706.96 572.4H1712.88L1704.44 592H1699.28L1690.92 572.4ZM1733.44 587.28C1732.54 588.88 1731.31 590.173 1729.76 591.16C1728.24 592.147 1726.38 592.64 1724.16 592.64C1722.67 592.64 1721.28 592.387 1720 591.88C1718.75 591.347 1717.66 590.613 1716.72 589.68C1715.79 588.747 1715.06 587.653 1714.52 586.4C1714.02 585.12 1713.76 583.72 1713.76 582.2C1713.76 580.787 1714.02 579.453 1714.52 578.2C1715.03 576.92 1715.74 575.813 1716.64 574.88C1717.55 573.92 1718.62 573.16 1719.84 572.6C1721.1 572.04 1722.47 571.76 1723.96 571.76C1725.54 571.76 1726.94 572.027 1728.16 572.56C1729.39 573.067 1730.42 573.787 1731.24 574.72C1732.07 575.627 1732.7 576.707 1733.12 577.96C1733.55 579.213 1733.76 580.573 1733.76 582.04C1733.76 582.227 1733.76 582.387 1733.76 582.52C1733.74 582.68 1733.72 582.827 1733.72 582.96C1733.7 583.093 1733.68 583.24 1733.68 583.4H1718.92C1719.03 584.2 1719.24 584.893 1719.56 585.48C1719.91 586.04 1720.32 586.52 1720.8 586.92C1721.31 587.293 1721.86 587.573 1722.44 587.76C1723.03 587.92 1723.63 588 1724.24 588C1725.44 588 1726.43 587.733 1727.2 587.2C1728 586.64 1728.63 585.947 1729.08 585.12L1733.44 587.28ZM1728.68 579.68C1728.66 579.333 1728.54 578.947 1728.32 578.52C1728.14 578.093 1727.84 577.693 1727.44 577.32C1727.07 576.947 1726.59 576.64 1726 576.4C1725.44 576.16 1724.76 576.04 1723.96 576.04C1722.84 576.04 1721.86 576.36 1721 577C1720.15 577.64 1719.55 578.533 1719.2 579.68H1728.68ZM1758.38 589.92H1758.06C1757.44 590.667 1756.7 591.307 1755.82 591.84C1754.96 592.373 1753.86 592.64 1752.5 592.64C1751.48 592.64 1750.52 592.467 1749.62 592.12C1748.74 591.8 1747.96 591.347 1747.3 590.76C1746.63 590.173 1746.11 589.467 1745.74 588.64C1745.36 587.813 1745.18 586.907 1745.18 585.92C1745.18 584.907 1745.38 584 1745.78 583.2C1746.18 582.373 1746.74 581.667 1747.46 581.08C1748.18 580.493 1749.02 580.053 1749.98 579.76C1750.96 579.44 1752.03 579.28 1753.18 579.28C1754.46 579.28 1755.51 579.387 1756.34 579.6C1757.16 579.787 1757.84 579.987 1758.38 580.2V579.6C1758.38 578.56 1757.96 577.707 1757.14 577.04C1756.31 576.347 1755.28 576 1754.06 576C1752.24 576 1750.71 576.76 1749.46 578.28L1745.66 575.68C1747.74 573.067 1750.58 571.76 1754.18 571.76C1757.22 571.76 1759.54 572.48 1761.14 573.92C1762.74 575.333 1763.54 577.44 1763.54 580.24V592H1758.38V589.92ZM1758.38 584.04C1757.76 583.747 1757.12 583.52 1756.46 583.36C1755.82 583.173 1755.11 583.08 1754.34 583.08C1753.08 583.08 1752.11 583.36 1751.42 583.92C1750.75 584.453 1750.42 585.12 1750.42 585.92C1750.42 586.72 1750.74 587.36 1751.38 587.84C1752.04 588.32 1752.8 588.56 1753.66 588.56C1754.35 588.56 1754.99 588.44 1755.58 588.2C1756.16 587.933 1756.66 587.6 1757.06 587.2C1757.48 586.773 1757.8 586.293 1758.02 585.76C1758.26 585.2 1758.38 584.627 1758.38 584.04Z" fill="white"/>
<g filter="url(#filter0_f_111_2)">
<path d="M1798.24 586.56C1798.24 588.267 1797.49 589.707 1796 590.88C1794.51 592.053 1792.63 592.64 1790.36 592.64C1788.39 592.64 1786.65 592.133 1785.16 591.12C1783.67 590.08 1782.6 588.72 1781.96 587.04L1785.24 585.64C1785.72 586.813 1786.41 587.733 1787.32 588.4C1788.25 589.04 1789.27 589.36 1790.36 589.36C1791.53 589.36 1792.51 589.107 1793.28 588.6C1794.08 588.093 1794.48 587.493 1794.48 586.8C1794.48 585.547 1793.52 584.627 1791.6 584.04L1788.24 583.2C1784.43 582.24 1782.52 580.4 1782.52 577.68C1782.52 575.893 1783.24 574.467 1784.68 573.4C1786.15 572.307 1788.01 571.76 1790.28 571.76C1792.01 571.76 1793.57 572.173 1794.96 573C1796.37 573.827 1797.36 574.933 1797.92 576.32L1794.64 577.68C1794.27 576.853 1793.65 576.213 1792.8 575.76C1791.97 575.28 1791.04 575.04 1790 575.04C1789.04 575.04 1788.17 575.28 1787.4 575.76C1786.65 576.24 1786.28 576.827 1786.28 577.52C1786.28 578.64 1787.33 579.44 1789.44 579.92L1792.4 580.68C1796.29 581.64 1798.24 583.6 1798.24 586.56ZM1809.21 592.32C1807.61 592.32 1806.27 591.827 1805.21 590.84C1804.17 589.853 1803.63 588.48 1803.61 586.72V575.76H1800.17V572.4H1803.61V566.4H1807.29V572.4H1812.09V575.76H1807.29V585.52C1807.29 586.827 1807.54 587.72 1808.05 588.2C1808.55 588.653 1809.13 588.88 1809.77 588.88C1810.06 588.88 1810.34 588.853 1810.61 588.8C1810.9 588.72 1811.17 588.627 1811.41 588.52L1812.57 591.8C1811.61 592.147 1810.49 592.32 1809.21 592.32ZM1818.08 586C1818.08 586.96 1818.48 587.76 1819.28 588.4C1820.1 589.04 1821.06 589.36 1822.16 589.36C1823.7 589.36 1825.08 588.787 1826.28 587.64C1827.5 586.493 1828.12 585.147 1828.12 583.6C1826.97 582.693 1825.37 582.24 1823.32 582.24C1821.82 582.24 1820.57 582.6 1819.56 583.32C1818.57 584.04 1818.08 584.933 1818.08 586ZM1822.84 571.76C1825.56 571.76 1827.7 572.493 1829.28 573.96C1830.85 575.4 1831.64 577.387 1831.64 579.92V592H1828.12V589.28H1827.96C1826.44 591.52 1824.41 592.64 1821.88 592.64C1819.72 592.64 1817.9 592 1816.44 590.72C1815 589.44 1814.28 587.84 1814.28 585.92C1814.28 583.893 1815.04 582.28 1816.56 581.08C1818.1 579.88 1820.16 579.28 1822.72 579.28C1824.9 579.28 1826.7 579.68 1828.12 580.48V579.64C1828.12 578.36 1827.61 577.28 1826.6 576.4C1825.58 575.493 1824.4 575.04 1823.04 575.04C1820.98 575.04 1819.36 575.907 1818.16 577.64L1814.92 575.6C1816.7 573.04 1819.34 571.76 1822.84 571.76ZM1835.99 572.4H1839.51V575.12H1839.67C1840.23 574.16 1841.08 573.36 1842.23 572.72C1843.4 572.08 1844.62 571.76 1845.87 571.76C1848.27 571.76 1850.11 572.453 1851.39 573.84C1852.7 575.2 1853.35 577.147 1853.35 579.68V592H1849.67V579.92C1849.59 576.72 1847.98 575.12 1844.83 575.12C1843.36 575.12 1842.14 575.72 1841.15 576.92C1840.16 578.093 1839.67 579.507 1839.67 581.16V592H1835.99V572.4ZM1866.67 589.28C1868.48 589.28 1869.96 588.627 1871.11 587.32C1872.31 586.013 1872.91 584.307 1872.91 582.2C1872.91 580.147 1872.31 578.453 1871.11 577.12C1869.93 575.787 1868.45 575.12 1866.67 575.12C1864.91 575.12 1863.43 575.787 1862.23 577.12C1861.03 578.453 1860.43 580.147 1860.43 582.2C1860.43 584.28 1861.03 585.973 1862.23 587.28C1863.43 588.613 1864.91 589.28 1866.67 589.28ZM1866.07 592.64C1863.51 592.64 1861.31 591.627 1859.47 589.6C1857.65 587.547 1856.75 585.08 1856.75 582.2C1856.75 579.32 1857.65 576.853 1859.47 574.8C1861.31 572.773 1863.51 571.76 1866.07 571.76C1867.51 571.76 1868.81 572.067 1869.99 572.68C1871.19 573.293 1872.11 574.107 1872.75 575.12H1872.91L1872.75 572.4V563.36H1876.43V592H1872.91V589.28H1872.75C1872.11 590.293 1871.19 591.107 1869.99 591.72C1868.81 592.333 1867.51 592.64 1866.07 592.64ZM1885.12 596.8H1881.76V560.32H1885.12V596.8ZM1893.1 586C1893.1 586.96 1893.5 587.76 1894.3 588.4C1895.12 589.04 1896.08 589.36 1897.18 589.36C1898.72 589.36 1900.1 588.787 1901.3 587.64C1902.52 586.493 1903.14 585.147 1903.14 583.6C1901.99 582.693 1900.39 582.24 1898.34 582.24C1896.84 582.24 1895.59 582.6 1894.58 583.32C1893.59 584.04 1893.1 584.933 1893.1 586ZM1897.86 571.76C1900.58 571.76 1902.72 572.493 1904.3 573.96C1905.87 575.4 1906.66 577.387 1906.66 579.92V592H1903.14V589.28H1902.98C1901.46 591.52 1899.43 592.64 1896.9 592.64C1894.74 592.64 1892.92 592 1891.46 590.72C1890.02 589.44 1889.3 587.84 1889.3 585.92C1889.3 583.893 1890.06 582.28 1891.58 581.08C1893.12 579.88 1895.18 579.28 1897.74 579.28C1899.92 579.28 1901.72 579.68 1903.14 580.48V579.64C1903.14 578.36 1902.63 577.28 1901.62 576.4C1900.6 575.493 1899.42 575.04 1898.06 575.04C1896 575.04 1894.38 575.907 1893.18 577.64L1889.94 575.6C1891.72 573.04 1894.36 571.76 1897.86 571.76ZM1933.97 592.32C1932.37 592.32 1931.03 591.827 1929.97 590.84C1928.93 589.853 1928.39 588.48 1928.37 586.72V575.76H1924.93V572.4H1928.37V566.4H1932.05V572.4H1936.85V575.76H1932.05V585.52C1932.05 586.827 1932.3 587.72 1932.81 588.2C1933.31 588.653 1933.89 588.88 1934.53 588.88C1934.82 588.88 1935.1 588.853 1935.37 588.8C1935.66 588.72 1935.93 588.627 1936.17 588.52L1937.33 591.8C1936.37 592.147 1935.25 592.32 1933.97 592.32ZM1911.01 572.4H1914.53V575.6H1914.69C1915.78 573.093 1918.03 571.84 1921.45 571.84L1922.21 571.92V575.76L1920.57 575.6C1918.86 575.6 1917.45 576.133 1916.33 577.2C1915.23 578.24 1914.69 579.573 1914.69 581.2V592H1911.01V572.4ZM1977.47 577.68C1977.47 581.92 1976.06 585.467 1973.23 588.32C1970.38 591.2 1966.88 592.64 1962.75 592.64C1958.59 592.64 1955.1 591.2 1952.27 588.32C1949.44 585.467 1948.03 581.92 1948.03 577.68C1948.03 573.44 1949.44 569.893 1952.27 567.04C1955.1 564.16 1958.59 562.72 1962.75 562.72C1966.91 562.72 1970.4 564.173 1973.23 567.08C1976.06 569.933 1977.47 573.467 1977.47 577.68ZM1951.79 577.68C1951.79 580.987 1952.83 583.72 1954.91 585.88C1957.02 588.04 1959.63 589.12 1962.75 589.12C1965.87 589.12 1968.47 588.04 1970.55 585.88C1972.66 583.747 1973.71 581.013 1973.71 577.68C1973.71 574.347 1972.66 571.613 1970.55 569.48C1968.47 567.32 1965.87 566.24 1962.75 566.24C1959.63 566.24 1957.02 567.32 1954.91 569.48C1952.83 571.64 1951.79 574.373 1951.79 577.68ZM1999.69 584.36C1999.69 586.867 1998.77 588.88 1996.93 590.4C1995.07 591.893 1992.8 592.64 1990.13 592.64C1987.76 592.64 1985.67 591.947 1983.85 590.56C1982.04 589.173 1980.79 587.28 1980.09 584.88L1983.61 583.44C1983.85 584.293 1984.19 585.067 1984.61 585.76C1985.04 586.453 1985.53 587.053 1986.09 587.56C1986.68 588.04 1987.32 588.427 1988.01 588.72C1988.71 588.987 1989.44 589.12 1990.21 589.12C1991.89 589.12 1993.27 588.693 1994.33 587.84C1995.4 586.96 1995.93 585.8 1995.93 584.36C1995.93 583.16 1995.49 582.133 1994.61 581.28C1993.79 580.453 1992.24 579.653 1989.97 578.88C1987.68 578.053 1986.25 577.493 1985.69 577.2C1982.65 575.653 1981.13 573.373 1981.13 570.36C1981.13 568.253 1981.97 566.453 1983.65 564.96C1985.36 563.467 1987.45 562.72 1989.93 562.72C1992.12 562.72 1994.01 563.28 1995.61 564.4C1997.21 565.493 1998.28 566.867 1998.81 568.52L1995.37 569.96C1995.05 568.893 1994.41 568.013 1993.45 567.32C1992.52 566.6 1991.37 566.24 1990.01 566.24C1988.57 566.24 1987.36 566.64 1986.37 567.44C1985.39 568.187 1984.89 569.16 1984.89 570.36C1984.89 571.347 1985.28 572.2 1986.05 572.92C1986.91 573.64 1988.76 574.493 1991.61 575.48C1994.52 576.467 1996.59 577.68 1997.81 579.12C1999.07 580.533 1999.69 582.28 1999.69 584.36Z" fill="black"/>
</g>
<defs>
<filter id="filter0_f_111_2" x="1777.96" y="556.32" width="225.733" height="44.48" filterUnits="userSpaceOnUse" color-interpolation-filters="sRGB">
<feFlood flood-opacity="0" result="BackgroundImageFix"/>
<feBlend mode="normal" in="SourceGraphic" in2="BackgroundImageFix" result="shape"/>
<feGaussianBlur stdDeviation="2" result="effect1_foregroundBlur_111_2"/>
</filter>
<linearGradient id="paint0_linear_111_2" x1="1372" y1="0" x2="1372" y2="1154" gradientUnits="userSpaceOnUse">
<stop offset="0.157433" stop-color="#D1ECFB"/>
<stop offset="1" stop-color="#2885BA" stop-opacity="0.3"/>
</linearGradient>
<linearGradient id="paint1_linear_111_2" x1="295.5" y1="45" x2="295.5" y2="255" gradientUnits="userSpaceOnUse">
<stop offset="0.490842" stop-opacity="0.5"/>
<stop offset="1" stop-opacity="0.01"/>
</linearGradient>
<linearGradient id="paint2_linear_111_2" x1="295.5" y1="45" x2="295.5" y2="255" gradientUnits="userSpaceOnUse">
<stop offset="0.490842" stop-color="#AF2121" stop-opacity="0.5"/>
<stop offset="1" stop-opacity="0.01"/>
</linearGradient>
</defs>
</svg>
