<svg width="2744" height="1154" viewBox="0 0 2744 1154" fill="none" xmlns="http://www.w3.org/2000/svg">
<rect width="2744" height="1154" fill="url(#paint0_linear_111_2)"/>
<path d="M76.92 108V60.96H60.92V50.72H103.72V60.96H87.72V108H76.92ZM110.521 50.72H121.001V66.8L120.361 73.92H121.001C122.121 72.0533 123.721 70.5333 125.801 69.36C127.934 68.1333 130.307 67.52 132.921 67.52C137.987 67.52 141.721 69.0133 144.121 72C146.574 74.9867 147.801 79.0667 147.801 84.24V108H137.321V85.52C137.321 82.8 136.681 80.7467 135.401 79.36C134.121 77.92 132.334 77.2 130.041 77.2C128.601 77.2 127.321 77.52 126.201 78.16C125.081 78.7467 124.121 79.5733 123.321 80.64C122.574 81.7067 121.987 82.96 121.561 84.4C121.187 85.7867 121.001 87.28 121.001 88.88V108H110.521V50.72ZM193.978 98.56C192.165 101.76 189.711 104.347 186.618 106.32C183.578 108.293 179.845 109.28 175.418 109.28C172.431 109.28 169.658 108.773 167.098 107.76C164.591 106.693 162.405 105.227 160.538 103.36C158.671 101.493 157.205 99.3067 156.138 96.8C155.125 94.24 154.618 91.44 154.618 88.4C154.618 85.5733 155.125 82.9067 156.138 80.4C157.151 77.84 158.565 75.6267 160.378 73.76C162.191 71.84 164.325 70.32 166.778 69.2C169.285 68.08 172.031 67.52 175.018 67.52C178.165 67.52 180.965 68.0533 183.418 69.12C185.871 70.1333 187.925 71.5733 189.578 73.44C191.231 75.2533 192.485 77.4133 193.338 79.92C194.191 82.4267 194.618 85.1467 194.618 88.08C194.618 88.4533 194.618 88.7733 194.618 89.04C194.565 89.36 194.538 89.6533 194.538 89.92C194.485 90.1867 194.458 90.48 194.458 90.8H164.938C165.151 92.4 165.578 93.7867 166.218 94.96C166.911 96.08 167.738 97.04 168.698 97.84C169.711 98.5867 170.805 99.1467 171.978 99.52C173.151 99.84 174.351 100 175.578 100C177.978 100 179.951 99.4667 181.498 98.4C183.098 97.28 184.351 95.8933 185.258 94.24L193.978 98.56ZM184.458 83.36C184.405 82.6667 184.165 81.8933 183.738 81.04C183.365 80.1867 182.778 79.3867 181.978 78.64C181.231 77.8933 180.271 77.28 179.098 76.8C177.978 76.32 176.618 76.08 175.018 76.08C172.778 76.08 170.805 76.72 169.098 78C167.391 79.28 166.191 81.0667 165.498 83.36H184.458ZM64.76 248V190.72H84.92C87.64 190.72 90.1733 191.173 92.52 192.08C94.92 192.933 97 194.16 98.76 195.76C100.52 197.36 101.907 199.28 102.92 201.52C103.933 203.707 104.44 206.133 104.44 208.8C104.44 211.52 103.933 214 102.92 216.24C101.907 218.427 100.52 220.32 98.76 221.92C97 223.52 94.92 224.773 92.52 225.68C90.1733 226.533 87.64 226.96 84.92 226.96H75.56V248H64.76ZM85.08 216.72C87.9067 216.72 90.04 215.92 91.48 214.32C92.92 212.72 93.64 210.88 93.64 208.8C93.64 207.787 93.4533 206.8 93.08 205.84C92.76 204.88 92.2267 204.053 91.48 203.36C90.7867 202.613 89.9067 202.027 88.84 201.6C87.7733 201.173 86.52 200.96 85.08 200.96H75.56V216.72H85.08ZM111.224 208.8H121.064V214.24H121.704C122.184 213.28 122.824 212.4 123.624 211.6C124.424 210.8 125.304 210.107 126.264 209.52C127.277 208.933 128.344 208.48 129.464 208.16C130.637 207.84 131.784 207.68 132.904 207.68C134.29 207.68 135.464 207.813 136.424 208.08C137.437 208.347 138.29 208.693 138.984 209.12L136.184 218.64C135.544 218.32 134.824 218.08 134.024 217.92C133.277 217.707 132.344 217.6 131.224 217.6C129.784 217.6 128.477 217.893 127.304 218.48C126.13 219.013 125.117 219.787 124.264 220.8C123.464 221.813 122.824 223.013 122.344 224.4C121.917 225.733 121.704 227.2 121.704 228.8V248H111.224V208.8ZM160.34 207.52C163.38 207.52 166.153 208.053 168.66 209.12C171.22 210.133 173.407 211.573 175.22 213.44C177.087 215.253 178.527 217.44 179.54 220C180.607 222.56 181.14 225.36 181.14 228.4C181.14 231.44 180.607 234.24 179.54 236.8C178.527 239.36 177.087 241.573 175.22 243.44C173.407 245.253 171.22 246.693 168.66 247.76C166.153 248.773 163.38 249.28 160.34 249.28C157.3 249.28 154.5 248.773 151.94 247.76C149.433 246.693 147.247 245.253 145.38 243.44C143.567 241.573 142.127 239.36 141.06 236.8C140.047 234.24 139.54 231.44 139.54 228.4C139.54 225.36 140.047 222.56 141.06 220C142.127 217.44 143.567 215.253 145.38 213.44C147.247 211.573 149.433 210.133 151.94 209.12C154.5 208.053 157.3 207.52 160.34 207.52ZM160.34 239.6C161.673 239.6 162.953 239.36 164.18 238.88C165.46 238.347 166.58 237.6 167.54 236.64C168.5 235.68 169.247 234.507 169.78 233.12C170.367 231.733 170.66 230.16 170.66 228.4C170.66 226.64 170.367 225.067 169.78 223.68C169.247 222.293 168.5 221.12 167.54 220.16C166.58 219.2 165.46 218.48 164.18 218C162.953 217.467 161.673 217.2 160.34 217.2C158.953 217.2 157.647 217.467 156.42 218C155.193 218.48 154.1 219.2 153.14 220.16C152.18 221.12 151.407 222.293 150.82 223.68C150.287 225.067 150.02 226.64 150.02 228.4C150.02 230.16 150.287 231.733 150.82 233.12C151.407 234.507 152.18 235.68 153.14 236.64C154.1 237.6 155.193 238.347 156.42 238.88C157.647 239.36 158.953 239.6 160.34 239.6ZM182.203 255.68C182.63 255.947 183.03 256.133 183.403 256.24C183.83 256.347 184.336 256.4 184.923 256.4C187.323 256.4 188.523 254.827 188.523 251.68V208.8H199.003V252C199.003 254.56 198.656 256.72 197.963 258.48C197.27 260.293 196.336 261.76 195.163 262.88C193.99 264 192.63 264.8 191.083 265.28C189.536 265.813 187.883 266.08 186.123 266.08C184.79 266.08 183.59 265.973 182.523 265.76C181.456 265.6 180.47 265.333 179.563 264.96L182.203 255.68ZM193.723 203.12C192.816 203.12 191.936 202.96 191.083 202.64C190.283 202.267 189.563 201.787 188.923 201.2C188.336 200.56 187.856 199.84 187.483 199.04C187.163 198.24 187.003 197.36 187.003 196.4C187.003 195.44 187.163 194.56 187.483 193.76C187.856 192.96 188.336 192.267 188.923 191.68C189.563 191.04 190.283 190.56 191.083 190.24C191.936 189.867 192.816 189.68 193.723 189.68C195.59 189.68 197.19 190.347 198.523 191.68C199.856 192.96 200.523 194.533 200.523 196.4C200.523 198.267 199.856 199.867 198.523 201.2C197.19 202.48 195.59 203.12 193.723 203.12ZM245.716 238.56C243.902 241.76 241.449 244.347 238.356 246.32C235.316 248.293 231.582 249.28 227.156 249.28C224.169 249.28 221.396 248.773 218.836 247.76C216.329 246.693 214.142 245.227 212.276 243.36C210.409 241.493 208.942 239.307 207.876 236.8C206.862 234.24 206.356 231.44 206.356 228.4C206.356 225.573 206.862 222.907 207.876 220.4C208.889 217.84 210.302 215.627 212.116 213.76C213.929 211.84 216.062 210.32 218.516 209.2C221.022 208.08 223.769 207.52 226.756 207.52C229.902 207.52 232.702 208.053 235.156 209.12C237.609 210.133 239.662 211.573 241.316 213.44C242.969 215.253 244.222 217.413 245.076 219.92C245.929 222.427 246.356 225.147 246.356 228.08C246.356 228.453 246.356 228.773 246.356 229.04C246.302 229.36 246.276 229.653 246.276 229.92C246.222 230.187 246.196 230.48 246.196 230.8H216.676C216.889 232.4 217.316 233.787 217.956 234.96C218.649 236.08 219.476 237.04 220.436 237.84C221.449 238.587 222.542 239.147 223.716 239.52C224.889 239.84 226.089 240 227.316 240C229.716 240 231.689 239.467 233.236 238.4C234.836 237.28 236.089 235.893 236.996 234.24L245.716 238.56ZM236.196 223.36C236.142 222.667 235.902 221.893 235.476 221.04C235.102 220.187 234.516 219.387 233.716 218.64C232.969 217.893 232.009 217.28 230.836 216.8C229.716 216.32 228.356 216.08 226.756 216.08C224.516 216.08 222.542 216.72 220.836 218C219.129 219.28 217.929 221.067 217.236 223.36H236.196ZM291.039 238C289.333 241.307 286.933 244.027 283.839 246.16C280.799 248.24 276.986 249.28 272.399 249.28C269.359 249.28 266.559 248.773 263.999 247.76C261.493 246.693 259.306 245.227 257.439 243.36C255.626 241.493 254.186 239.307 253.119 236.8C252.106 234.24 251.599 231.44 251.599 228.4C251.599 225.36 252.106 222.56 253.119 220C254.186 217.44 255.626 215.253 257.439 213.44C259.306 211.573 261.493 210.133 263.999 209.12C266.559 208.053 269.359 207.52 272.399 207.52C276.933 207.52 280.746 208.56 283.839 210.64C286.933 212.72 289.199 215.413 290.639 218.72L281.039 222.72C280.133 220.907 278.959 219.547 277.519 218.64C276.133 217.68 274.373 217.2 272.239 217.2C270.853 217.2 269.546 217.467 268.319 218C267.093 218.533 265.999 219.28 265.039 220.24C264.133 221.2 263.413 222.373 262.879 223.76C262.346 225.147 262.079 226.693 262.079 228.4C262.079 230.107 262.346 231.653 262.879 233.04C263.413 234.427 264.133 235.6 265.039 236.56C265.999 237.52 267.093 238.267 268.319 238.8C269.546 239.333 270.853 239.6 272.239 239.6C274.426 239.6 276.266 239.12 277.759 238.16C279.306 237.147 280.533 235.707 281.439 233.84L291.039 238ZM301.762 217.76H294.882V208.8H301.762V196.8H312.242V208.8H321.842V217.76H312.242V232.96C312.242 233.867 312.322 234.72 312.482 235.52C312.696 236.267 313.069 236.907 313.602 237.44C314.349 238.293 315.416 238.72 316.802 238.72C317.709 238.72 318.429 238.64 318.962 238.48C319.496 238.267 320.002 238 320.482 237.68L323.442 246.88C322.216 247.467 320.882 247.893 319.442 248.16C318.056 248.48 316.509 248.64 314.802 248.64C312.829 248.64 311.042 248.347 309.442 247.76C307.896 247.12 306.589 246.267 305.522 245.2C303.016 242.8 301.762 239.387 301.762 234.96V217.76ZM336.272 248.48C334.352 248.48 332.699 247.813 331.312 246.48C329.979 245.093 329.312 243.44 329.312 241.52C329.312 239.6 329.979 237.973 331.312 236.64C332.699 235.307 334.352 234.64 336.272 234.64C338.192 234.64 339.819 235.307 341.152 236.64C342.485 237.973 343.152 239.6 343.152 241.52C343.152 243.44 342.485 245.093 341.152 246.48C339.819 247.813 338.192 248.48 336.272 248.48Z" fill="url(#paint1_linear_111_2)"/>
<path d="M82.28 179.28C79.8267 179.28 77.48 178.933 75.24 178.24C73 177.547 70.9467 176.507 69.08 175.12C67.2133 173.733 65.5867 172.053 64.2 170.08C62.8133 168.053 61.72 165.707 60.92 163.04L71.08 159.04C71.8267 161.92 73.1333 164.32 75 166.24C76.8667 168.107 79.32 169.04 82.36 169.04C83.48 169.04 84.5467 168.907 85.56 168.64C86.6267 168.32 87.56 167.893 88.36 167.36C89.2133 166.773 89.88 166.053 90.36 165.2C90.84 164.347 91.08 163.36 91.08 162.24C91.08 161.173 90.8933 160.213 90.52 159.36C90.1467 158.507 89.5067 157.707 88.6 156.96C87.7467 156.213 86.6 155.493 85.16 154.8C83.7733 154.107 82.04 153.387 79.96 152.64L76.44 151.36C74.8933 150.827 73.32 150.107 71.72 149.2C70.1733 148.293 68.76 147.2 67.48 145.92C66.2 144.64 65.1333 143.147 64.28 141.44C63.48 139.68 63.08 137.707 63.08 135.52C63.08 133.28 63.5067 131.2 64.36 129.28C65.2667 127.307 66.52 125.6 68.12 124.16C69.7733 122.667 71.72 121.52 73.96 120.72C76.2533 119.867 78.7867 119.44 81.56 119.44C84.44 119.44 86.92 119.84 89 120.64C91.1333 121.387 92.92 122.373 94.36 123.6C95.8533 124.773 97.0533 126.08 97.96 127.52C98.8667 128.96 99.5333 130.32 99.96 131.6L90.44 135.6C89.9067 134 88.92 132.56 87.48 131.28C86.0933 130 84.1733 129.36 81.72 129.36C79.3733 129.36 77.4267 129.92 75.88 131.04C74.3333 132.107 73.56 133.52 73.56 135.28C73.56 136.987 74.3067 138.453 75.8 139.68C77.2933 140.853 79.6667 142 82.92 143.12L86.52 144.32C88.8133 145.12 90.8933 146.053 92.76 147.12C94.68 148.133 96.3067 149.36 97.64 150.8C99.0267 152.24 100.067 153.893 100.76 155.76C101.507 157.573 101.88 159.68 101.88 162.08C101.88 165.067 101.267 167.653 100.04 169.84C98.8667 171.973 97.3467 173.733 95.48 175.12C93.6133 176.507 91.5067 177.547 89.16 178.24C86.8133 178.933 84.52 179.28 82.28 179.28ZM112.184 147.76H105.304V138.8H112.184V126.8H122.664V138.8H132.264V147.76H122.664V162.96C122.664 163.867 122.744 164.72 122.904 165.52C123.118 166.267 123.491 166.907 124.024 167.44C124.771 168.293 125.838 168.72 127.224 168.72C128.131 168.72 128.851 168.64 129.384 168.48C129.918 168.267 130.424 168 130.904 167.68L133.864 176.88C132.638 177.467 131.304 177.893 129.864 178.16C128.478 178.48 126.931 178.64 125.224 178.64C123.251 178.64 121.464 178.347 119.864 177.76C118.318 177.12 117.011 176.267 115.944 175.2C113.438 172.8 112.184 169.387 112.184 164.96V147.76ZM163.753 173.84H163.113C161.886 175.333 160.393 176.613 158.633 177.68C156.926 178.747 154.713 179.28 151.993 179.28C149.966 179.28 148.046 178.933 146.233 178.24C144.473 177.6 142.926 176.693 141.593 175.52C140.259 174.347 139.219 172.933 138.473 171.28C137.726 169.627 137.353 167.813 137.353 165.84C137.353 163.813 137.753 162 138.553 160.4C139.353 158.747 140.473 157.333 141.913 156.16C143.353 154.987 145.033 154.107 146.953 153.52C148.926 152.88 151.059 152.56 153.353 152.56C155.913 152.56 158.019 152.773 159.673 153.2C161.326 153.573 162.686 153.973 163.753 154.4V153.2C163.753 151.12 162.926 149.413 161.273 148.08C159.619 146.693 157.566 146 155.113 146C151.486 146 148.419 147.52 145.913 150.56L138.313 145.36C142.473 140.133 148.153 137.52 155.353 137.52C161.433 137.52 166.073 138.96 169.273 141.84C172.473 144.667 174.073 148.88 174.073 154.48V178H163.753V173.84ZM163.753 162.08C162.526 161.493 161.246 161.04 159.913 160.72C158.633 160.347 157.219 160.16 155.673 160.16C153.166 160.16 151.219 160.72 149.833 161.84C148.499 162.907 147.833 164.24 147.833 165.84C147.833 167.44 148.473 168.72 149.753 169.68C151.086 170.64 152.606 171.12 154.313 171.12C155.699 171.12 156.979 170.88 158.153 170.4C159.326 169.867 160.313 169.2 161.113 168.4C161.966 167.547 162.606 166.587 163.033 165.52C163.513 164.4 163.753 163.253 163.753 162.08ZM192.645 143.92H193.285C194.512 141.947 196.165 140.4 198.245 139.28C200.325 138.107 202.698 137.52 205.365 137.52C207.818 137.52 209.978 137.92 211.845 138.72C213.712 139.52 215.232 140.667 216.405 142.16C217.632 143.6 218.538 145.36 219.125 147.44C219.765 149.467 220.085 151.733 220.085 154.24V178H209.605V155.52C209.605 152.693 208.965 150.613 207.685 149.28C206.458 147.893 204.645 147.2 202.245 147.2C200.805 147.2 199.525 147.52 198.405 148.16C197.338 148.747 196.405 149.573 195.605 150.64C194.858 151.653 194.272 152.88 193.845 154.32C193.472 155.707 193.285 157.2 193.285 158.8V178H182.805V138.8H192.645V143.92ZM258.343 173.28H257.703C256.743 174.933 255.249 176.347 253.223 177.52C251.196 178.693 248.689 179.28 245.703 179.28C243.196 179.28 240.796 178.773 238.503 177.76C236.263 176.693 234.263 175.253 232.503 173.44C230.796 171.573 229.436 169.36 228.423 166.8C227.409 164.24 226.903 161.44 226.903 158.4C226.903 155.36 227.409 152.56 228.423 150C229.436 147.44 230.796 145.253 232.503 143.44C234.263 141.573 236.263 140.133 238.503 139.12C240.796 138.053 243.196 137.52 245.703 137.52C248.689 137.52 251.196 138.107 253.223 139.28C255.249 140.453 256.743 141.867 257.703 143.52H258.343L257.703 137.92V120.72H268.183V178H258.343V173.28ZM247.863 169.6C249.249 169.6 250.556 169.36 251.783 168.88C253.063 168.347 254.183 167.6 255.143 166.64C256.103 165.68 256.876 164.507 257.463 163.12C258.049 161.733 258.343 160.16 258.343 158.4C258.343 156.64 258.049 155.067 257.463 153.68C256.876 152.293 256.103 151.12 255.143 150.16C254.183 149.2 253.063 148.48 251.783 148C250.556 147.467 249.249 147.2 247.863 147.2C246.476 147.2 245.143 147.467 243.863 148C242.636 148.533 241.543 149.28 240.583 150.24C239.623 151.2 238.849 152.373 238.263 153.76C237.676 155.147 237.383 156.693 237.383 158.4C237.383 160.107 237.676 161.653 238.263 163.04C238.849 164.427 239.623 165.6 240.583 166.56C241.543 167.52 242.636 168.267 243.863 168.8C245.143 169.333 246.476 169.6 247.863 169.6ZM278.791 114.64H288.391V187.6H278.791V114.64ZM323.165 173.84H322.525C321.298 175.333 319.805 176.613 318.045 177.68C316.338 178.747 314.125 179.28 311.405 179.28C309.378 179.28 307.458 178.933 305.645 178.24C303.885 177.6 302.338 176.693 301.005 175.52C299.672 174.347 298.632 172.933 297.885 171.28C297.138 169.627 296.765 167.813 296.765 165.84C296.765 163.813 297.165 162 297.965 160.4C298.765 158.747 299.885 157.333 301.325 156.16C302.765 154.987 304.445 154.107 306.365 153.52C308.338 152.88 310.472 152.56 312.765 152.56C315.325 152.56 317.432 152.773 319.085 153.2C320.738 153.573 322.098 153.973 323.165 154.4V153.2C323.165 151.12 322.338 149.413 320.685 148.08C319.032 146.693 316.978 146 314.525 146C310.898 146 307.832 147.52 305.325 150.56L297.725 145.36C301.885 140.133 307.565 137.52 314.765 137.52C320.845 137.52 325.485 138.96 328.685 141.84C331.885 144.667 333.485 148.88 333.485 154.48V178H323.165V173.84ZM323.165 162.08C321.938 161.493 320.658 161.04 319.325 160.72C318.045 160.347 316.632 160.16 315.085 160.16C312.578 160.16 310.632 160.72 309.245 161.84C307.912 162.907 307.245 164.24 307.245 165.84C307.245 167.44 307.885 168.72 309.165 169.68C310.498 170.64 312.018 171.12 313.725 171.12C315.112 171.12 316.392 170.88 317.565 170.4C318.738 169.867 319.725 169.2 320.525 168.4C321.378 167.547 322.018 166.587 322.445 165.52C322.925 164.4 323.165 163.253 323.165 162.08ZM352.057 144.24H352.697C353.764 142.267 355.311 140.693 357.337 139.52C359.417 138.293 361.711 137.68 364.217 137.68C365.124 137.68 365.844 137.707 366.377 137.76C366.911 137.813 367.417 137.92 367.897 138.08V148.48C367.311 148.213 366.644 148 365.897 147.84C365.204 147.68 364.351 147.6 363.337 147.6C360.031 147.6 357.417 148.613 355.497 150.64C353.631 152.613 352.697 155.333 352.697 158.8V178H342.217V138.8H352.057V144.24ZM379.497 147.76H372.617V138.8H379.497V126.8H389.977V138.8H399.577V147.76H389.977V162.96C389.977 163.867 390.057 164.72 390.217 165.52C390.431 166.267 390.804 166.907 391.337 167.44C392.084 168.293 393.151 168.72 394.537 168.72C395.444 168.72 396.164 168.64 396.697 168.48C397.231 168.267 397.737 168 398.217 167.68L401.177 176.88C399.951 177.467 398.617 177.893 397.177 178.16C395.791 178.48 394.244 178.64 392.537 178.64C390.564 178.64 388.777 178.347 387.177 177.76C385.631 177.12 384.324 176.267 383.257 175.2C380.751 172.8 379.497 169.387 379.497 164.96V147.76ZM452.511 179.28C448.245 179.28 444.271 178.507 440.591 176.96C436.965 175.413 433.818 173.307 431.151 170.64C428.485 167.92 426.378 164.747 424.831 161.12C423.338 157.44 422.591 153.52 422.591 149.36C422.591 145.2 423.338 141.307 424.831 137.68C426.378 134 428.485 130.827 431.151 128.16C433.818 125.44 436.965 123.307 440.591 121.76C444.271 120.213 448.245 119.44 452.511 119.44C456.778 119.44 460.725 120.213 464.351 121.76C468.031 123.307 471.205 125.44 473.871 128.16C476.538 130.827 478.618 134 480.111 137.68C481.658 141.307 482.431 145.2 482.431 149.36C482.431 153.52 481.658 157.44 480.111 161.12C478.618 164.747 476.538 167.92 473.871 170.64C471.205 173.307 468.031 175.413 464.351 176.96C460.725 178.507 456.778 179.28 452.511 179.28ZM452.511 169.04C455.178 169.04 457.658 168.56 459.951 167.6C462.298 166.64 464.325 165.307 466.031 163.6C467.791 161.893 469.151 159.84 470.111 157.44C471.125 154.987 471.631 152.293 471.631 149.36C471.631 146.427 471.125 143.76 470.111 141.36C469.151 138.907 467.791 136.827 466.031 135.12C464.325 133.413 462.298 132.08 459.951 131.12C457.658 130.16 455.178 129.68 452.511 129.68C449.845 129.68 447.338 130.16 444.991 131.12C442.698 132.08 440.671 133.413 438.911 135.12C437.205 136.827 435.845 138.907 434.831 141.36C433.871 143.76 433.391 146.427 433.391 149.36C433.391 152.293 433.871 154.987 434.831 157.44C435.845 159.84 437.205 161.893 438.911 163.6C440.671 165.307 442.698 166.64 444.991 167.6C447.338 168.56 449.845 169.04 452.511 169.04ZM509.093 179.28C506.639 179.28 504.293 178.933 502.053 178.24C499.813 177.547 497.759 176.507 495.893 175.12C494.026 173.733 492.399 172.053 491.013 170.08C489.626 168.053 488.533 165.707 487.733 163.04L497.893 159.04C498.639 161.92 499.946 164.32 501.813 166.24C503.679 168.107 506.133 169.04 509.173 169.04C510.293 169.04 511.359 168.907 512.373 168.64C513.439 168.32 514.373 167.893 515.173 167.36C516.026 166.773 516.693 166.053 517.173 165.2C517.653 164.347 517.893 163.36 517.893 162.24C517.893 161.173 517.706 160.213 517.333 159.36C516.959 158.507 516.319 157.707 515.413 156.96C514.559 156.213 513.413 155.493 511.973 154.8C510.586 154.107 508.853 153.387 506.773 152.64L503.253 151.36C501.706 150.827 500.133 150.107 498.533 149.2C496.986 148.293 495.573 147.2 494.293 145.92C493.013 144.64 491.946 143.147 491.092 141.44C490.293 139.68 489.893 137.707 489.893 135.52C489.893 133.28 490.319 131.2 491.173 129.28C492.079 127.307 493.333 125.6 494.933 124.16C496.586 122.667 498.533 121.52 500.773 120.72C503.066 119.867 505.599 119.44 508.373 119.44C511.253 119.44 513.733 119.84 515.813 120.64C517.946 121.387 519.733 122.373 521.173 123.6C522.666 124.773 523.866 126.08 524.773 127.52C525.679 128.96 526.346 130.32 526.773 131.6L517.253 135.6C516.719 134 515.733 132.56 514.293 131.28C512.906 130 510.986 129.36 508.533 129.36C506.186 129.36 504.239 129.92 502.693 131.04C501.146 132.107 500.373 133.52 500.373 135.28C500.373 136.987 501.119 138.453 502.613 139.68C504.106 140.853 506.479 142 509.733 143.12L513.333 144.32C515.626 145.12 517.706 146.053 519.573 147.12C521.493 148.133 523.119 149.36 524.453 150.8C525.839 152.24 526.879 153.893 527.573 155.76C528.319 157.573 528.693 159.68 528.693 162.08C528.693 165.067 528.079 167.653 526.853 169.84C525.679 171.973 524.159 173.733 522.293 175.12C520.426 176.507 518.319 177.547 515.973 178.24C513.626 178.933 511.333 179.28 509.093 179.28Z" fill="url(#paint2_linear_111_2)"/>
<path d="M759.64 592.64C758.413 592.64 757.24 592.467 756.12 592.12C755 591.773 753.973 591.253 753.04 590.56C752.107 589.867 751.293 589.027 750.6 588.04C749.907 587.027 749.36 585.853 748.96 584.52L754.04 582.52C754.413 583.96 755.067 585.16 756 586.12C756.933 587.053 758.16 587.52 759.68 587.52C760.24 587.52 760.773 587.453 761.28 587.32C761.813 587.16 762.28 586.947 762.68 586.68C763.107 586.387 763.44 586.027 763.68 585.6C763.92 585.173 764.04 584.68 764.04 584.12C764.04 583.587 763.947 583.107 763.76 582.68C763.573 582.253 763.253 581.853 762.8 581.48C762.373 581.107 761.8 580.747 761.08 580.4C760.387 580.053 759.52 579.693 758.48 579.32L756.72 578.68C755.947 578.413 755.16 578.053 754.36 577.6C753.587 577.147 752.88 576.6 752.24 575.96C751.6 575.32 751.067 574.573 750.64 573.72C750.24 572.84 750.04 571.853 750.04 570.76C750.04 569.64 750.253 568.6 750.68 567.64C751.133 566.653 751.76 565.8 752.56 565.08C753.387 564.333 754.36 563.76 755.48 563.36C756.627 562.933 757.893 562.72 759.28 562.72C760.72 562.72 761.96 562.92 763 563.32C764.067 563.693 764.96 564.187 765.68 564.8C766.427 565.387 767.027 566.04 767.48 566.76C767.933 567.48 768.267 568.16 768.48 568.8L763.72 570.8C763.453 570 762.96 569.28 762.24 568.64C761.547 568 760.587 567.68 759.36 567.68C758.187 567.68 757.213 567.96 756.44 568.52C755.667 569.053 755.28 569.76 755.28 570.64C755.28 571.493 755.653 572.227 756.4 572.84C757.147 573.427 758.333 574 759.96 574.56L761.76 575.16C762.907 575.56 763.947 576.027 764.88 576.56C765.84 577.067 766.653 577.68 767.32 578.4C768.013 579.12 768.533 579.947 768.88 580.88C769.253 581.787 769.44 582.84 769.44 584.04C769.44 585.533 769.133 586.827 768.52 587.92C767.933 588.987 767.173 589.867 766.24 590.56C765.307 591.253 764.253 591.773 763.08 592.12C761.907 592.467 760.76 592.64 759.64 592.64ZM774.592 576.88H771.152V572.4H774.592V566.4H779.832V572.4H784.632V576.88H779.832V584.48C779.832 584.933 779.872 585.36 779.952 585.76C780.059 586.133 780.246 586.453 780.512 586.72C780.886 587.147 781.419 587.36 782.112 587.36C782.566 587.36 782.926 587.32 783.192 587.24C783.459 587.133 783.712 587 783.952 586.84L785.432 591.44C784.819 591.733 784.152 591.947 783.432 592.08C782.739 592.24 781.966 592.32 781.112 592.32C780.126 592.32 779.232 592.173 778.432 591.88C777.659 591.56 777.006 591.133 776.472 590.6C775.219 589.4 774.592 587.693 774.592 585.48V576.88ZM800.376 589.92H800.056C799.443 590.667 798.696 591.307 797.816 591.84C796.963 592.373 795.856 592.64 794.496 592.64C793.483 592.64 792.523 592.467 791.616 592.12C790.736 591.8 789.963 591.347 789.296 590.76C788.63 590.173 788.11 589.467 787.736 588.64C787.363 587.813 787.176 586.907 787.176 585.92C787.176 584.907 787.376 584 787.776 583.2C788.176 582.373 788.736 581.667 789.456 581.08C790.176 580.493 791.016 580.053 791.976 579.76C792.963 579.44 794.03 579.28 795.176 579.28C796.456 579.28 797.51 579.387 798.336 579.6C799.163 579.787 799.843 579.987 800.376 580.2V579.6C800.376 578.56 799.963 577.707 799.136 577.04C798.31 576.347 797.283 576 796.056 576C794.243 576 792.71 576.76 791.456 578.28L787.656 575.68C789.736 573.067 792.576 571.76 796.176 571.76C799.216 571.76 801.536 572.48 803.136 573.92C804.736 575.333 805.536 577.44 805.536 580.24V592H800.376V589.92ZM800.376 584.04C799.763 583.747 799.123 583.52 798.456 583.36C797.816 583.173 797.11 583.08 796.336 583.08C795.083 583.08 794.11 583.36 793.416 583.92C792.75 584.453 792.416 585.12 792.416 585.92C792.416 586.72 792.736 587.36 793.376 587.84C794.043 588.32 794.803 588.56 795.656 588.56C796.35 588.56 796.99 588.44 797.576 588.2C798.163 587.933 798.656 587.6 799.056 587.2C799.483 586.773 799.803 586.293 800.016 585.76C800.256 585.2 800.376 584.627 800.376 584.04ZM809.902 563.36H815.142V571.96L814.822 574.76H815.142C815.622 573.933 816.369 573.227 817.382 572.64C818.396 572.053 819.649 571.76 821.142 571.76C822.396 571.76 823.582 572.027 824.702 572.56C825.849 573.067 826.849 573.787 827.703 574.72C828.583 575.627 829.276 576.72 829.782 578C830.289 579.28 830.542 580.68 830.542 582.2C830.542 583.72 830.289 585.12 829.782 586.4C829.276 587.68 828.583 588.787 827.703 589.72C826.849 590.627 825.849 591.347 824.702 591.88C823.582 592.387 822.396 592.64 821.142 592.64C819.649 592.64 818.396 592.347 817.382 591.76C816.369 591.173 815.622 590.467 815.142 589.64H814.822V592H809.902V563.36ZM820.062 587.8C820.756 587.8 821.409 587.667 822.022 587.4C822.662 587.133 823.222 586.76 823.702 586.28C824.182 585.8 824.569 585.213 824.862 584.52C825.156 583.827 825.302 583.053 825.302 582.2C825.302 581.347 825.156 580.573 824.862 579.88C824.569 579.187 824.182 578.6 823.702 578.12C823.222 577.64 822.662 577.267 822.022 577C821.409 576.733 820.756 576.6 820.062 576.6C819.369 576.6 818.702 576.733 818.062 577C817.449 577.24 816.902 577.6 816.422 578.08C815.942 578.56 815.556 579.147 815.262 579.84C814.969 580.533 814.822 581.32 814.822 582.2C814.822 583.08 814.969 583.867 815.262 584.56C815.556 585.253 815.942 585.84 816.422 586.32C816.902 586.8 817.449 587.173 818.062 587.44C818.702 587.68 819.369 587.8 820.062 587.8ZM833.892 592V563.36H839.132V592H833.892ZM862.183 587.28C861.276 588.88 860.049 590.173 858.503 591.16C856.983 592.147 855.116 592.64 852.903 592.64C851.409 592.64 850.023 592.387 848.743 591.88C847.489 591.347 846.396 590.613 845.463 589.68C844.529 588.747 843.796 587.653 843.263 586.4C842.756 585.12 842.503 583.72 842.503 582.2C842.503 580.787 842.756 579.453 843.263 578.2C843.769 576.92 844.476 575.813 845.383 574.88C846.289 573.92 847.356 573.16 848.583 572.6C849.836 572.04 851.209 571.76 852.703 571.76C854.276 571.76 855.676 572.027 856.903 572.56C858.129 573.067 859.156 573.787 859.983 574.72C860.809 575.627 861.436 576.707 861.863 577.96C862.289 579.213 862.503 580.573 862.503 582.04C862.503 582.227 862.503 582.387 862.503 582.52C862.476 582.68 862.463 582.827 862.463 582.96C862.436 583.093 862.423 583.24 862.423 583.4H847.663C847.769 584.2 847.983 584.893 848.303 585.48C848.649 586.04 849.063 586.52 849.543 586.92C850.049 587.293 850.596 587.573 851.183 587.76C851.769 587.92 852.369 588 852.983 588C854.183 588 855.169 587.733 855.943 587.2C856.743 586.64 857.369 585.947 857.823 585.12L862.183 587.28ZM857.423 579.68C857.396 579.333 857.276 578.947 857.063 578.52C856.876 578.093 856.583 577.693 856.183 577.32C855.809 576.947 855.329 576.64 854.743 576.4C854.183 576.16 853.503 576.04 852.703 576.04C851.583 576.04 850.596 576.36 849.743 577C848.889 577.64 848.289 578.533 847.943 579.68H857.423ZM865.569 595.56L867.929 591.92C867.343 591.707 866.836 591.32 866.409 590.76C866.009 590.2 865.809 589.533 865.809 588.76C865.809 587.8 866.143 586.987 866.809 586.32C867.503 585.653 868.329 585.32 869.289 585.32C870.249 585.32 871.063 585.653 871.729 586.32C872.396 586.987 872.729 587.8 872.729 588.76C872.729 589.267 872.649 589.72 872.489 590.12C872.329 590.493 872.076 590.933 871.729 591.44L867.929 597.12L865.569 595.56ZM899.517 592.64C897.383 592.64 895.397 592.253 893.557 591.48C891.743 590.707 890.17 589.653 888.837 588.32C887.503 586.96 886.45 585.373 885.677 583.56C884.93 581.72 884.557 579.76 884.557 577.68C884.557 575.6 884.93 573.653 885.677 571.84C886.45 570 887.503 568.413 888.837 567.08C890.17 565.72 891.743 564.653 893.557 563.88C895.397 563.107 897.383 562.72 899.517 562.72C901.65 562.72 903.623 563.107 905.437 563.88C907.277 564.653 908.863 565.72 910.197 567.08C911.53 568.413 912.57 570 913.317 571.84C914.09 573.653 914.477 575.6 914.477 577.68C914.477 579.76 914.09 581.72 913.317 583.56C912.57 585.373 911.53 586.96 910.197 588.32C908.863 589.653 907.277 590.707 905.437 591.48C903.623 592.253 901.65 592.64 899.517 592.64ZM899.517 587.52C900.85 587.52 902.09 587.28 903.237 586.8C904.41 586.32 905.423 585.653 906.277 584.8C907.157 583.947 907.837 582.92 908.317 581.72C908.823 580.493 909.077 579.147 909.077 577.68C909.077 576.213 908.823 574.88 908.317 573.68C907.837 572.453 907.157 571.413 906.277 570.56C905.423 569.707 904.41 569.04 903.237 568.56C902.09 568.08 900.85 567.84 899.517 567.84C898.183 567.84 896.93 568.08 895.757 568.56C894.61 569.04 893.597 569.707 892.717 570.56C891.863 571.413 891.183 572.453 890.677 573.68C890.197 574.88 889.957 576.213 889.957 577.68C889.957 579.147 890.197 580.493 890.677 581.72C891.183 582.92 891.863 583.947 892.717 584.8C893.597 585.653 894.61 586.32 895.757 586.8C896.93 587.28 898.183 587.52 899.517 587.52ZM918.247 572.4H923.167V574.76H923.487C923.967 573.933 924.714 573.227 925.727 572.64C926.741 572.053 927.994 571.76 929.487 571.76C930.741 571.76 931.927 572.027 933.047 572.56C934.194 573.067 935.194 573.787 936.047 574.72C936.927 575.627 937.621 576.72 938.127 578C938.634 579.28 938.887 580.68 938.887 582.2C938.887 583.72 938.634 585.12 938.127 586.4C937.621 587.68 936.927 588.787 936.047 589.72C935.194 590.627 934.194 591.347 933.047 591.88C931.927 592.387 930.741 592.64 929.487 592.64C927.994 592.64 926.741 592.347 925.727 591.76C924.714 591.173 923.967 590.467 923.487 589.64H923.167L923.487 592.44V600.64H918.247V572.4ZM928.407 587.8C929.101 587.8 929.754 587.667 930.367 587.4C931.007 587.133 931.567 586.76 932.047 586.28C932.527 585.8 932.914 585.213 933.207 584.52C933.501 583.827 933.647 583.053 933.647 582.2C933.647 581.347 933.501 580.573 933.207 579.88C932.914 579.187 932.527 578.6 932.047 578.12C931.567 577.64 931.007 577.267 930.367 577C929.754 576.733 929.101 576.6 928.407 576.6C927.714 576.6 927.047 576.733 926.407 577C925.794 577.24 925.247 577.6 924.767 578.08C924.287 578.56 923.901 579.147 923.607 579.84C923.314 580.533 923.167 581.32 923.167 582.2C923.167 583.08 923.314 583.867 923.607 584.56C923.901 585.253 924.287 585.84 924.767 586.32C925.247 586.8 925.794 587.173 926.407 587.44C927.047 587.68 927.714 587.8 928.407 587.8ZM943.814 576.88H940.374V572.4H943.814V566.4H949.054V572.4H953.854V576.88H949.054V584.48C949.054 584.933 949.094 585.36 949.174 585.76C949.281 586.133 949.467 586.453 949.734 586.72C950.107 587.147 950.641 587.36 951.334 587.36C951.787 587.36 952.147 587.32 952.414 587.24C952.681 587.133 952.934 587 953.174 586.84L954.654 591.44C954.041 591.733 953.374 591.947 952.654 592.08C951.961 592.24 951.187 592.32 950.334 592.32C949.347 592.32 948.454 592.173 947.654 591.88C946.881 591.56 946.227 591.133 945.694 590.6C944.441 589.4 943.814 587.693 943.814 585.48V576.88ZM961.024 569.56C960.571 569.56 960.131 569.48 959.704 569.32C959.304 569.133 958.944 568.893 958.624 568.6C958.331 568.28 958.091 567.92 957.904 567.52C957.744 567.12 957.664 566.68 957.664 566.2C957.664 565.72 957.744 565.28 957.904 564.88C958.091 564.48 958.331 564.133 958.624 563.84C958.944 563.52 959.304 563.28 959.704 563.12C960.131 562.933 960.571 562.84 961.024 562.84C961.957 562.84 962.757 563.173 963.424 563.84C964.091 564.48 964.424 565.267 964.424 566.2C964.424 567.133 964.091 567.933 963.424 568.6C962.757 569.24 961.957 569.56 961.024 569.56ZM958.424 592V572.4H963.664V592H958.424ZM968.656 572.4H973.576V574.96H973.896C974.509 574 975.336 573.227 976.376 572.64C977.442 572.053 978.616 571.76 979.896 571.76C981.389 571.76 982.642 572.107 983.656 572.8C984.669 573.493 985.389 574.347 985.816 575.36C986.429 574.373 987.296 573.533 988.416 572.84C989.536 572.12 990.896 571.76 992.496 571.76C993.696 571.76 994.736 571.96 995.616 572.36C996.496 572.733 997.216 573.267 997.776 573.96C998.362 574.653 998.802 575.493 999.096 576.48C999.389 577.44 999.536 578.493 999.536 579.64V592H994.296V580.6C994.296 577.933 993.202 576.6 991.016 576.6C990.322 576.6 989.709 576.76 989.176 577.08C988.642 577.373 988.189 577.787 987.816 578.32C987.469 578.827 987.189 579.44 986.976 580.16C986.789 580.88 986.696 581.653 986.696 582.48V592H981.456V580.6C981.456 577.933 980.309 576.6 978.016 576.6C977.349 576.6 976.762 576.76 976.256 577.08C975.749 577.373 975.322 577.787 974.976 578.32C974.629 578.827 974.362 579.44 974.176 580.16C973.989 580.88 973.896 581.653 973.896 582.48V592H968.656V572.4ZM1006.97 569.56C1006.52 569.56 1006.08 569.48 1005.65 569.32C1005.25 569.133 1004.89 568.893 1004.57 568.6C1004.28 568.28 1004.04 567.92 1003.85 567.52C1003.69 567.12 1003.61 566.68 1003.61 566.2C1003.61 565.72 1003.69 565.28 1003.85 564.88C1004.04 564.48 1004.28 564.133 1004.57 563.84C1004.89 563.52 1005.25 563.28 1005.65 563.12C1006.08 562.933 1006.52 562.84 1006.97 562.84C1007.9 562.84 1008.7 563.173 1009.37 563.84C1010.04 564.48 1010.37 565.267 1010.37 566.2C1010.37 567.133 1010.04 567.933 1009.37 568.6C1008.7 569.24 1007.9 569.56 1006.97 569.56ZM1004.37 592V572.4H1009.61V592H1004.37ZM1013.64 587.68L1023.64 576.88H1013.96V572.4H1030.08V576.72L1020.08 587.52H1030.24V592H1013.64V587.68ZM1045.63 589.92H1045.31C1044.7 590.667 1043.95 591.307 1043.07 591.84C1042.22 592.373 1041.11 592.64 1039.75 592.64C1038.74 592.64 1037.78 592.467 1036.87 592.12C1035.99 591.8 1035.22 591.347 1034.55 590.76C1033.89 590.173 1033.37 589.467 1032.99 588.64C1032.62 587.813 1032.43 586.907 1032.43 585.92C1032.43 584.907 1032.63 584 1033.03 583.2C1033.43 582.373 1033.99 581.667 1034.71 581.08C1035.43 580.493 1036.27 580.053 1037.23 579.76C1038.22 579.44 1039.29 579.28 1040.43 579.28C1041.71 579.28 1042.77 579.387 1043.59 579.6C1044.42 579.787 1045.1 579.987 1045.63 580.2V579.6C1045.63 578.56 1045.22 577.707 1044.39 577.04C1043.57 576.347 1042.54 576 1041.31 576C1039.5 576 1037.97 576.76 1036.71 578.28L1032.91 575.68C1034.99 573.067 1037.83 571.76 1041.43 571.76C1044.47 571.76 1046.79 572.48 1048.39 573.92C1049.99 575.333 1050.79 577.44 1050.79 580.24V592H1045.63V589.92ZM1045.63 584.04C1045.02 583.747 1044.38 583.52 1043.71 583.36C1043.07 583.173 1042.37 583.08 1041.59 583.08C1040.34 583.08 1039.37 583.36 1038.67 583.92C1038.01 584.453 1037.67 585.12 1037.67 585.92C1037.67 586.72 1037.99 587.36 1038.63 587.84C1039.3 588.32 1040.06 588.56 1040.91 588.56C1041.61 588.56 1042.25 588.44 1042.83 588.2C1043.42 587.933 1043.91 587.6 1044.31 587.2C1044.74 586.773 1045.06 586.293 1045.27 585.76C1045.51 585.2 1045.63 584.627 1045.63 584.04ZM1056.93 576.88H1053.49V572.4H1056.93V566.4H1062.17V572.4H1066.97V576.88H1062.17V584.48C1062.17 584.933 1062.21 585.36 1062.29 585.76C1062.39 586.133 1062.58 586.453 1062.85 586.72C1063.22 587.147 1063.75 587.36 1064.45 587.36C1064.9 587.36 1065.26 587.32 1065.53 587.24C1065.79 587.133 1066.05 587 1066.29 586.84L1067.77 591.44C1067.15 591.733 1066.49 591.947 1065.77 592.08C1065.07 592.24 1064.3 592.32 1063.45 592.32C1062.46 592.32 1061.57 592.173 1060.77 591.88C1059.99 591.56 1059.34 591.133 1058.81 590.6C1057.55 589.4 1056.93 587.693 1056.93 585.48V576.88ZM1074.14 569.56C1073.68 569.56 1073.24 569.48 1072.82 569.32C1072.42 569.133 1072.06 568.893 1071.74 568.6C1071.44 568.28 1071.2 567.92 1071.02 567.52C1070.86 567.12 1070.78 566.68 1070.78 566.2C1070.78 565.72 1070.86 565.28 1071.02 564.88C1071.2 564.48 1071.44 564.133 1071.74 563.84C1072.06 563.52 1072.42 563.28 1072.82 563.12C1073.24 562.933 1073.68 562.84 1074.14 562.84C1075.07 562.84 1075.87 563.173 1076.54 563.84C1077.2 564.48 1077.54 565.267 1077.54 566.2C1077.54 567.133 1077.2 567.933 1076.54 568.6C1075.87 569.24 1075.07 569.56 1074.14 569.56ZM1071.54 592V572.4H1076.78V592H1071.54ZM1090.85 571.76C1092.37 571.76 1093.76 572.027 1095.01 572.56C1096.29 573.067 1097.39 573.787 1098.29 574.72C1099.23 575.627 1099.95 576.72 1100.45 578C1100.99 579.28 1101.25 580.68 1101.25 582.2C1101.25 583.72 1100.99 585.12 1100.45 586.4C1099.95 587.68 1099.23 588.787 1098.29 589.72C1097.39 590.627 1096.29 591.347 1095.01 591.88C1093.76 592.387 1092.37 592.64 1090.85 592.64C1089.33 592.64 1087.93 592.387 1086.65 591.88C1085.4 591.347 1084.31 590.627 1083.37 589.72C1082.47 588.787 1081.75 587.68 1081.21 586.4C1080.71 585.12 1080.45 583.72 1080.45 582.2C1080.45 580.68 1080.71 579.28 1081.21 578C1081.75 576.72 1082.47 575.627 1083.37 574.72C1084.31 573.787 1085.4 573.067 1086.65 572.56C1087.93 572.027 1089.33 571.76 1090.85 571.76ZM1090.85 587.8C1091.52 587.8 1092.16 587.68 1092.77 587.44C1093.41 587.173 1093.97 586.8 1094.45 586.32C1094.93 585.84 1095.31 585.253 1095.57 584.56C1095.87 583.867 1096.01 583.08 1096.01 582.2C1096.01 581.32 1095.87 580.533 1095.57 579.84C1095.31 579.147 1094.93 578.56 1094.45 578.08C1093.97 577.6 1093.41 577.24 1092.77 577C1092.16 576.733 1091.52 576.6 1090.85 576.6C1090.16 576.6 1089.51 576.733 1088.89 577C1088.28 577.24 1087.73 577.6 1087.25 578.08C1086.77 578.56 1086.39 579.147 1086.09 579.84C1085.83 580.533 1085.69 581.32 1085.69 582.2C1085.69 583.08 1085.83 583.867 1086.09 584.56C1086.39 585.253 1086.77 585.84 1087.25 586.32C1087.73 586.8 1088.28 587.173 1088.89 587.44C1089.51 587.68 1090.16 587.8 1090.85 587.8ZM1109.35 574.96H1109.67C1110.28 573.973 1111.11 573.2 1112.15 572.64C1113.19 572.053 1114.38 571.76 1115.71 571.76C1116.94 571.76 1118.02 571.96 1118.95 572.36C1119.88 572.76 1120.64 573.333 1121.23 574.08C1121.84 574.8 1122.3 575.68 1122.59 576.72C1122.91 577.733 1123.07 578.867 1123.07 580.12V592H1117.83V580.76C1117.83 579.347 1117.51 578.307 1116.87 577.64C1116.26 576.947 1115.35 576.6 1114.15 576.6C1113.43 576.6 1112.79 576.76 1112.23 577.08C1111.7 577.373 1111.23 577.787 1110.83 578.32C1110.46 578.827 1110.16 579.44 1109.95 580.16C1109.76 580.853 1109.67 581.6 1109.67 582.4V592H1104.43V572.4H1109.35V574.96ZM1127.12 595.56L1129.48 591.92C1128.89 591.707 1128.39 591.32 1127.96 590.76C1127.56 590.2 1127.36 589.533 1127.36 588.76C1127.36 587.8 1127.69 586.987 1128.36 586.32C1129.05 585.653 1129.88 585.32 1130.84 585.32C1131.8 585.32 1132.61 585.653 1133.28 586.32C1133.95 586.987 1134.28 587.8 1134.28 588.76C1134.28 589.267 1134.2 589.72 1134.04 590.12C1133.88 590.493 1133.63 590.933 1133.28 591.44L1129.48 597.12L1127.12 595.56ZM1148.29 563.36H1166.45V568.48H1153.69V575.44H1165.17V580.56H1153.69V592H1148.29V563.36ZM1181.45 589.92H1181.13C1180.52 590.667 1179.77 591.307 1178.89 591.84C1178.04 592.373 1176.93 592.64 1175.57 592.64C1174.56 592.64 1173.6 592.467 1172.69 592.12C1171.81 591.8 1171.04 591.347 1170.37 590.76C1169.7 590.173 1169.18 589.467 1168.81 588.64C1168.44 587.813 1168.25 586.907 1168.25 585.92C1168.25 584.907 1168.45 584 1168.85 583.2C1169.25 582.373 1169.81 581.667 1170.53 581.08C1171.25 580.493 1172.09 580.053 1173.05 579.76C1174.04 579.44 1175.1 579.28 1176.25 579.28C1177.53 579.28 1178.58 579.387 1179.41 579.6C1180.24 579.787 1180.92 579.987 1181.45 580.2V579.6C1181.45 578.56 1181.04 577.707 1180.21 577.04C1179.38 576.347 1178.36 576 1177.13 576C1175.32 576 1173.78 576.76 1172.53 578.28L1168.73 575.68C1170.81 573.067 1173.65 571.76 1177.25 571.76C1180.29 571.76 1182.61 572.48 1184.21 573.92C1185.81 575.333 1186.61 577.44 1186.61 580.24V592H1181.45V589.92ZM1181.45 584.04C1180.84 583.747 1180.2 583.52 1179.53 583.36C1178.89 583.173 1178.18 583.08 1177.41 583.08C1176.16 583.08 1175.18 583.36 1174.49 583.92C1173.82 584.453 1173.49 585.12 1173.49 585.92C1173.49 586.72 1173.81 587.36 1174.45 587.84C1175.12 588.32 1175.88 588.56 1176.73 588.56C1177.42 588.56 1178.06 588.44 1178.65 588.2C1179.24 587.933 1179.73 587.6 1180.13 587.2C1180.56 586.773 1180.88 586.293 1181.09 585.76C1181.33 585.2 1181.45 584.627 1181.45 584.04ZM1198.54 592.64C1197.26 592.64 1196.12 592.48 1195.1 592.16C1194.12 591.84 1193.25 591.427 1192.5 590.92C1191.78 590.387 1191.17 589.787 1190.66 589.12C1190.16 588.427 1189.77 587.733 1189.5 587.04L1194.18 585.04C1194.64 586.053 1195.24 586.813 1195.98 587.32C1196.76 587.8 1197.61 588.04 1198.54 588.04C1199.5 588.04 1200.26 587.867 1200.82 587.52C1201.38 587.173 1201.66 586.76 1201.66 586.28C1201.66 585.747 1201.42 585.32 1200.94 585C1200.49 584.653 1199.69 584.347 1198.54 584.08L1195.78 583.48C1195.17 583.347 1194.53 583.133 1193.86 582.84C1193.22 582.547 1192.64 582.173 1192.1 581.72C1191.57 581.267 1191.13 580.72 1190.78 580.08C1190.44 579.44 1190.26 578.693 1190.26 577.84C1190.26 576.88 1190.46 576.027 1190.86 575.28C1191.29 574.533 1191.86 573.907 1192.58 573.4C1193.3 572.867 1194.14 572.467 1195.1 572.2C1196.09 571.907 1197.14 571.76 1198.26 571.76C1200.13 571.76 1201.8 572.133 1203.26 572.88C1204.73 573.6 1205.81 574.76 1206.5 576.36L1201.98 578.2C1201.61 577.427 1201.06 576.867 1200.34 576.52C1199.62 576.173 1198.9 576 1198.18 576C1197.44 576 1196.78 576.16 1196.22 576.48C1195.66 576.773 1195.38 577.16 1195.38 577.64C1195.38 578.093 1195.61 578.453 1196.06 578.72C1196.54 578.987 1197.18 579.227 1197.98 579.44L1200.98 580.16C1202.98 580.64 1204.46 581.413 1205.42 582.48C1206.41 583.52 1206.9 584.76 1206.9 586.2C1206.9 587.053 1206.7 587.867 1206.3 588.64C1205.9 589.413 1205.33 590.107 1204.58 590.72C1203.86 591.307 1202.98 591.773 1201.94 592.12C1200.93 592.467 1199.8 592.64 1198.54 592.64ZM1212.28 576.88H1208.84V572.4H1212.28V566.4H1217.52V572.4H1222.32V576.88H1217.52V584.48C1217.52 584.933 1217.56 585.36 1217.64 585.76C1217.75 586.133 1217.94 586.453 1218.2 586.72C1218.58 587.147 1219.11 587.36 1219.8 587.36C1220.26 587.36 1220.62 587.32 1220.88 587.24C1221.15 587.133 1221.4 587 1221.64 586.84L1223.12 591.44C1222.51 591.733 1221.84 591.947 1221.12 592.08C1220.43 592.24 1219.66 592.32 1218.8 592.32C1217.82 592.32 1216.92 592.173 1216.12 591.88C1215.35 591.56 1214.7 591.133 1214.16 590.6C1212.91 589.4 1212.28 587.693 1212.28 585.48V576.88ZM1229.54 592.24C1228.58 592.24 1227.75 591.907 1227.06 591.24C1226.39 590.547 1226.06 589.72 1226.06 588.76C1226.06 587.8 1226.39 586.987 1227.06 586.32C1227.75 585.653 1228.58 585.32 1229.54 585.32C1230.5 585.32 1231.31 585.653 1231.98 586.32C1232.64 586.987 1232.98 587.8 1232.98 588.76C1232.98 589.72 1232.64 590.547 1231.98 591.24C1231.31 591.907 1230.5 592.24 1229.54 592.24ZM1240.48 592.24C1239.52 592.24 1238.69 591.907 1238 591.24C1237.33 590.547 1237 589.72 1237 588.76C1237 587.8 1237.33 586.987 1238 586.32C1238.69 585.653 1239.52 585.32 1240.48 585.32C1241.44 585.32 1242.25 585.653 1242.92 586.32C1243.59 586.987 1243.92 587.8 1243.92 588.76C1243.92 589.72 1243.59 590.547 1242.92 591.24C1242.25 591.907 1241.44 592.24 1240.48 592.24ZM1251.42 592.24C1250.46 592.24 1249.64 591.907 1248.94 591.24C1248.28 590.547 1247.94 589.72 1247.94 588.76C1247.94 587.8 1248.28 586.987 1248.94 586.32C1249.64 585.653 1250.46 585.32 1251.42 585.32C1252.38 585.32 1253.2 585.653 1253.86 586.32C1254.53 586.987 1254.86 587.8 1254.86 588.76C1254.86 589.72 1254.53 590.547 1253.86 591.24C1253.2 591.907 1252.38 592.24 1251.42 592.24ZM1270.35 576.88H1266.91V572.4H1270.35V566.4H1275.59V572.4H1280.39V576.88H1275.59V584.48C1275.59 584.933 1275.63 585.36 1275.71 585.76C1275.82 586.133 1276.01 586.453 1276.27 586.72C1276.65 587.147 1277.18 587.36 1277.87 587.36C1278.33 587.36 1278.69 587.32 1278.95 587.24C1279.22 587.133 1279.47 587 1279.71 586.84L1281.19 591.44C1280.58 591.733 1279.91 591.947 1279.19 592.08C1278.5 592.24 1277.73 592.32 1276.87 592.32C1275.89 592.32 1274.99 592.173 1274.19 591.88C1273.42 591.56 1272.77 591.133 1272.23 590.6C1270.98 589.4 1270.35 587.693 1270.35 585.48V576.88ZM1284.64 563.36H1289.88V571.4L1289.56 574.96H1289.88C1290.44 574.027 1291.24 573.267 1292.28 572.68C1293.35 572.067 1294.54 571.76 1295.84 571.76C1298.38 571.76 1300.24 572.507 1301.44 574C1302.67 575.493 1303.28 577.533 1303.28 580.12V592H1298.04V580.76C1298.04 579.4 1297.72 578.373 1297.08 577.68C1296.44 576.96 1295.55 576.6 1294.4 576.6C1293.68 576.6 1293.04 576.76 1292.48 577.08C1291.92 577.373 1291.44 577.787 1291.04 578.32C1290.67 578.853 1290.38 579.48 1290.16 580.2C1289.98 580.893 1289.88 581.64 1289.88 582.44V592H1284.64V563.36ZM1319.7 589.92H1319.38C1318.76 590.667 1318.02 591.307 1317.14 591.84C1316.28 592.373 1315.18 592.64 1313.82 592.64C1312.8 592.64 1311.84 592.467 1310.94 592.12C1310.06 591.8 1309.28 591.347 1308.62 590.76C1307.95 590.173 1307.43 589.467 1307.06 588.64C1306.68 587.813 1306.5 586.907 1306.5 585.92C1306.5 584.907 1306.7 584 1307.1 583.2C1307.5 582.373 1308.06 581.667 1308.78 581.08C1309.5 580.493 1310.34 580.053 1311.3 579.76C1312.28 579.44 1313.35 579.28 1314.5 579.28C1315.78 579.28 1316.83 579.387 1317.66 579.6C1318.48 579.787 1319.16 579.987 1319.7 580.2V579.6C1319.7 578.56 1319.28 577.707 1318.46 577.04C1317.63 576.347 1316.6 576 1315.38 576C1313.56 576 1312.03 576.76 1310.78 578.28L1306.98 575.68C1309.06 573.067 1311.9 571.76 1315.5 571.76C1318.54 571.76 1320.86 572.48 1322.46 573.92C1324.06 575.333 1324.86 577.44 1324.86 580.24V592H1319.7V589.92ZM1319.7 584.04C1319.08 583.747 1318.44 583.52 1317.78 583.36C1317.14 583.173 1316.43 583.08 1315.66 583.08C1314.4 583.08 1313.43 583.36 1312.74 583.92C1312.07 584.453 1311.74 585.12 1311.74 585.92C1311.74 586.72 1312.06 587.36 1312.7 587.84C1313.36 588.32 1314.12 588.56 1314.98 588.56C1315.67 588.56 1316.31 588.44 1316.9 588.2C1317.48 587.933 1317.98 587.6 1318.38 587.2C1318.8 586.773 1319.12 586.293 1319.34 585.76C1319.58 585.2 1319.7 584.627 1319.7 584.04ZM1330.99 576.88H1327.55V572.4H1330.99V566.4H1336.23V572.4H1341.03V576.88H1336.23V584.48C1336.23 584.933 1336.27 585.36 1336.35 585.76C1336.46 586.133 1336.65 586.453 1336.91 586.72C1337.29 587.147 1337.82 587.36 1338.51 587.36C1338.97 587.36 1339.33 587.32 1339.59 587.24C1339.86 587.133 1340.11 587 1340.35 586.84L1341.83 591.44C1341.22 591.733 1340.55 591.947 1339.83 592.08C1339.14 592.24 1338.37 592.32 1337.51 592.32C1336.53 592.32 1335.63 592.173 1334.83 591.88C1334.06 591.56 1333.41 591.133 1332.87 590.6C1331.62 589.4 1330.99 587.693 1330.99 585.48V576.88ZM1344.85 572.44L1346.89 569.32C1346.3 569.107 1345.79 568.733 1345.37 568.2C1344.97 567.64 1344.77 566.973 1344.77 566.2C1344.77 565.24 1345.1 564.427 1345.77 563.76C1346.46 563.067 1347.29 562.72 1348.25 562.72C1349.21 562.72 1350.02 563.067 1350.69 563.76C1351.35 564.427 1351.69 565.24 1351.69 566.2C1351.69 566.707 1351.59 567.16 1351.41 567.56C1351.25 567.96 1351.01 568.387 1350.69 568.84L1347.21 574L1344.85 572.44ZM1361.8 592.64C1360.52 592.64 1359.37 592.48 1358.36 592.16C1357.37 591.84 1356.5 591.427 1355.76 590.92C1355.04 590.387 1354.42 589.787 1353.92 589.12C1353.41 588.427 1353.02 587.733 1352.76 587.04L1357.44 585.04C1357.89 586.053 1358.49 586.813 1359.24 587.32C1360.01 587.8 1360.86 588.04 1361.8 588.04C1362.76 588.04 1363.52 587.867 1364.08 587.52C1364.64 587.173 1364.92 586.76 1364.92 586.28C1364.92 585.747 1364.68 585.32 1364.2 585C1363.74 584.653 1362.94 584.347 1361.8 584.08L1359.04 583.48C1358.42 583.347 1357.78 583.133 1357.12 582.84C1356.48 582.547 1355.89 582.173 1355.36 581.72C1354.82 581.267 1354.38 580.72 1354.04 580.08C1353.69 579.44 1353.52 578.693 1353.52 577.84C1353.52 576.88 1353.72 576.027 1354.12 575.28C1354.54 574.533 1355.12 573.907 1355.84 573.4C1356.56 572.867 1357.4 572.467 1358.36 572.2C1359.34 571.907 1360.4 571.76 1361.52 571.76C1363.38 571.76 1365.05 572.133 1366.52 572.88C1367.98 573.6 1369.06 574.76 1369.76 576.36L1365.24 578.2C1364.86 577.427 1364.32 576.867 1363.6 576.52C1362.88 576.173 1362.16 576 1361.44 576C1360.69 576 1360.04 576.16 1359.48 576.48C1358.92 576.773 1358.64 577.16 1358.64 577.64C1358.64 578.093 1358.86 578.453 1359.32 578.72C1359.8 578.987 1360.44 579.227 1361.24 579.44L1364.24 580.16C1366.24 580.64 1367.72 581.413 1368.68 582.48C1369.66 583.52 1370.16 584.76 1370.16 586.2C1370.16 587.053 1369.96 587.867 1369.56 588.64C1369.16 589.413 1368.58 590.107 1367.84 590.72C1367.12 591.307 1366.24 591.773 1365.2 592.12C1364.18 592.467 1363.05 592.64 1361.8 592.64ZM1380.48 572.4H1386.36L1389.6 584.68H1389.88L1393.76 572.4H1399.16L1403.08 584.68H1403.36L1406.56 572.4H1412.36L1406.08 592H1400.44L1396.52 579.64H1396.24L1392.32 592H1386.76L1380.48 572.4ZM1414.95 563.36H1420.19V571.4L1419.87 574.96H1420.19C1420.75 574.027 1421.55 573.267 1422.59 572.68C1423.66 572.067 1424.84 571.76 1426.15 571.76C1428.68 571.76 1430.55 572.507 1431.75 574C1432.98 575.493 1433.59 577.533 1433.59 580.12V592H1428.35V580.76C1428.35 579.4 1428.03 578.373 1427.39 577.68C1426.75 576.96 1425.86 576.6 1424.71 576.6C1423.99 576.6 1423.35 576.76 1422.79 577.08C1422.23 577.373 1421.75 577.787 1421.35 578.32C1420.98 578.853 1420.68 579.48 1420.47 580.2C1420.28 580.893 1420.19 581.64 1420.19 582.44V592H1414.95V563.36ZM1443.89 591.04L1435.65 572.4H1441.61L1446.57 584.28H1446.85L1451.61 572.4H1457.45L1445.17 600.64H1439.53L1443.89 591.04ZM1475.19 591.04L1466.95 572.4H1472.91L1477.87 584.28H1478.15L1482.91 572.4H1488.75L1476.47 600.64H1470.83L1475.19 591.04ZM1499.83 571.76C1501.35 571.76 1502.74 572.027 1503.99 572.56C1505.27 573.067 1506.37 573.787 1507.27 574.72C1508.21 575.627 1508.93 576.72 1509.43 578C1509.97 579.28 1510.23 580.68 1510.23 582.2C1510.23 583.72 1509.97 585.12 1509.43 586.4C1508.93 587.68 1508.21 588.787 1507.27 589.72C1506.37 590.627 1505.27 591.347 1503.99 591.88C1502.74 592.387 1501.35 592.64 1499.83 592.64C1498.31 592.64 1496.91 592.387 1495.63 591.88C1494.38 591.347 1493.29 590.627 1492.35 589.72C1491.45 588.787 1490.73 587.68 1490.19 586.4C1489.69 585.12 1489.43 583.72 1489.43 582.2C1489.43 580.68 1489.69 579.28 1490.19 578C1490.73 576.72 1491.45 575.627 1492.35 574.72C1493.29 573.787 1494.38 573.067 1495.63 572.56C1496.91 572.027 1498.31 571.76 1499.83 571.76ZM1499.83 587.8C1500.5 587.8 1501.14 587.68 1501.75 587.44C1502.39 587.173 1502.95 586.8 1503.43 586.32C1503.91 585.84 1504.29 585.253 1504.55 584.56C1504.85 583.867 1504.99 583.08 1504.99 582.2C1504.99 581.32 1504.85 580.533 1504.55 579.84C1504.29 579.147 1503.91 578.56 1503.43 578.08C1502.95 577.6 1502.39 577.24 1501.75 577C1501.14 576.733 1500.5 576.6 1499.83 576.6C1499.14 576.6 1498.49 576.733 1497.87 577C1497.26 577.24 1496.71 577.6 1496.23 578.08C1495.75 578.56 1495.37 579.147 1495.07 579.84C1494.81 580.533 1494.67 581.32 1494.67 582.2C1494.67 583.08 1494.81 583.867 1495.07 584.56C1495.37 585.253 1495.75 585.84 1496.23 586.32C1496.71 586.8 1497.26 587.173 1497.87 587.44C1498.49 587.68 1499.14 587.8 1499.83 587.8ZM1527.17 589.44H1526.85C1526.23 590.427 1525.41 591.213 1524.37 591.8C1523.33 592.36 1522.14 592.64 1520.81 592.64C1518.33 592.64 1516.47 591.88 1515.25 590.36C1514.05 588.84 1513.45 586.813 1513.45 584.28V572.4H1518.69V583.64C1518.69 585.053 1518.99 586.107 1519.61 586.8C1520.25 587.467 1521.17 587.8 1522.37 587.8C1523.09 587.8 1523.71 587.653 1524.25 587.36C1524.81 587.04 1525.27 586.627 1525.65 586.12C1526.05 585.587 1526.34 584.973 1526.53 584.28C1526.74 583.56 1526.85 582.8 1526.85 582V572.4H1532.09V592H1527.17V589.44ZM1545.76 572.4H1550.68V574.96H1551C1551.62 574 1552.44 573.227 1553.48 572.64C1554.55 572.053 1555.72 571.76 1557 571.76C1558.5 571.76 1559.75 572.107 1560.76 572.8C1561.78 573.493 1562.5 574.347 1562.92 575.36C1563.54 574.373 1564.4 573.533 1565.52 572.84C1566.64 572.12 1568 571.76 1569.6 571.76C1570.8 571.76 1571.84 571.96 1572.72 572.36C1573.6 572.733 1574.32 573.267 1574.88 573.96C1575.47 574.653 1575.91 575.493 1576.2 576.48C1576.5 577.44 1576.64 578.493 1576.64 579.64V592H1571.4V580.6C1571.4 577.933 1570.31 576.6 1568.12 576.6C1567.43 576.6 1566.82 576.76 1566.28 577.08C1565.75 577.373 1565.3 577.787 1564.92 578.32C1564.58 578.827 1564.3 579.44 1564.08 580.16C1563.9 580.88 1563.8 581.653 1563.8 582.48V592H1558.56V580.6C1558.56 577.933 1557.42 576.6 1555.12 576.6C1554.46 576.6 1553.87 576.76 1553.36 577.08C1552.86 577.373 1552.43 577.787 1552.08 578.32C1551.74 578.827 1551.47 579.44 1551.28 580.16C1551.1 580.88 1551 581.653 1551 582.48V592H1545.76V572.4ZM1594.72 589.44H1594.4C1593.79 590.427 1592.96 591.213 1591.92 591.8C1590.88 592.36 1589.69 592.64 1588.36 592.64C1585.88 592.64 1584.03 591.88 1582.8 590.36C1581.6 588.84 1581 586.813 1581 584.28V572.4H1586.24V583.64C1586.24 585.053 1586.55 586.107 1587.16 586.8C1587.8 587.467 1588.72 587.8 1589.92 587.8C1590.64 587.8 1591.27 587.653 1591.8 587.36C1592.36 587.04 1592.83 586.627 1593.2 586.12C1593.6 585.587 1593.89 584.973 1594.08 584.28C1594.29 583.56 1594.4 582.8 1594.4 582V572.4H1599.64V592H1594.72V589.44ZM1611.89 592.64C1610.61 592.64 1609.47 592.48 1608.45 592.16C1607.47 591.84 1606.6 591.427 1605.85 590.92C1605.13 590.387 1604.52 589.787 1604.01 589.12C1603.51 588.427 1603.12 587.733 1602.85 587.04L1607.53 585.04C1607.99 586.053 1608.59 586.813 1609.33 587.32C1610.11 587.8 1610.96 588.04 1611.89 588.04C1612.85 588.04 1613.61 587.867 1614.17 587.52C1614.73 587.173 1615.01 586.76 1615.01 586.28C1615.01 585.747 1614.77 585.32 1614.29 585C1613.84 584.653 1613.04 584.347 1611.89 584.08L1609.13 583.48C1608.52 583.347 1607.88 583.133 1607.21 582.84C1606.57 582.547 1605.99 582.173 1605.45 581.72C1604.92 581.267 1604.48 580.72 1604.13 580.08C1603.79 579.44 1603.61 578.693 1603.61 577.84C1603.61 576.88 1603.81 576.027 1604.21 575.28C1604.64 574.533 1605.21 573.907 1605.93 573.4C1606.65 572.867 1607.49 572.467 1608.45 572.2C1609.44 571.907 1610.49 571.76 1611.61 571.76C1613.48 571.76 1615.15 572.133 1616.61 572.88C1618.08 573.6 1619.16 574.76 1619.85 576.36L1615.33 578.2C1614.96 577.427 1614.41 576.867 1613.69 576.52C1612.97 576.173 1612.25 576 1611.53 576C1610.79 576 1610.13 576.16 1609.57 576.48C1609.01 576.773 1608.73 577.16 1608.73 577.64C1608.73 578.093 1608.96 578.453 1609.41 578.72C1609.89 578.987 1610.53 579.227 1611.33 579.44L1614.33 580.16C1616.33 580.64 1617.81 581.413 1618.77 582.48C1619.76 583.52 1620.25 584.76 1620.25 586.2C1620.25 587.053 1620.05 587.867 1619.65 588.64C1619.25 589.413 1618.68 590.107 1617.93 590.72C1617.21 591.307 1616.33 591.773 1615.29 592.12C1614.28 592.467 1613.15 592.64 1611.89 592.64ZM1625.63 576.88H1622.19V572.4H1625.63V566.4H1630.87V572.4H1635.67V576.88H1630.87V584.48C1630.87 584.933 1630.91 585.36 1630.99 585.76C1631.1 586.133 1631.29 586.453 1631.55 586.72C1631.93 587.147 1632.46 587.36 1633.15 587.36C1633.61 587.36 1633.97 587.32 1634.23 587.24C1634.5 587.133 1634.75 587 1634.99 586.84L1636.47 591.44C1635.86 591.733 1635.19 591.947 1634.47 592.08C1633.78 592.24 1633.01 592.32 1632.15 592.32C1631.17 592.32 1630.27 592.173 1629.47 591.88C1628.7 591.56 1628.05 591.133 1627.51 590.6C1626.26 589.4 1625.63 587.693 1625.63 585.48V576.88ZM1648.72 563.36H1653.96V571.4L1653.64 574.96H1653.96C1654.52 574.027 1655.32 573.267 1656.36 572.68C1657.42 572.067 1658.61 571.76 1659.92 571.76C1662.45 571.76 1664.32 572.507 1665.52 574C1666.74 575.493 1667.36 577.533 1667.36 580.12V592H1662.12V580.76C1662.12 579.4 1661.8 578.373 1661.16 577.68C1660.52 576.96 1659.62 576.6 1658.48 576.6C1657.76 576.6 1657.12 576.76 1656.56 577.08C1656 577.373 1655.52 577.787 1655.12 578.32C1654.74 578.853 1654.45 579.48 1654.24 580.2C1654.05 580.893 1653.96 581.64 1653.96 582.44V592H1648.72V563.36ZM1683.77 589.92H1683.45C1682.84 590.667 1682.09 591.307 1681.21 591.84C1680.36 592.373 1679.25 592.64 1677.89 592.64C1676.88 592.64 1675.92 592.467 1675.01 592.12C1674.13 591.8 1673.36 591.347 1672.69 590.76C1672.02 590.173 1671.5 589.467 1671.13 588.64C1670.76 587.813 1670.57 586.907 1670.57 585.92C1670.57 584.907 1670.77 584 1671.17 583.2C1671.57 582.373 1672.13 581.667 1672.85 581.08C1673.57 580.493 1674.41 580.053 1675.37 579.76C1676.36 579.44 1677.42 579.28 1678.57 579.28C1679.85 579.28 1680.9 579.387 1681.73 579.6C1682.56 579.787 1683.24 579.987 1683.77 580.2V579.6C1683.77 578.56 1683.36 577.707 1682.53 577.04C1681.7 576.347 1680.68 576 1679.45 576C1677.64 576 1676.1 576.76 1674.85 578.28L1671.05 575.68C1673.13 573.067 1675.97 571.76 1679.57 571.76C1682.61 571.76 1684.93 572.48 1686.53 573.92C1688.13 575.333 1688.93 577.44 1688.93 580.24V592H1683.77V589.92ZM1683.77 584.04C1683.16 583.747 1682.52 583.52 1681.85 583.36C1681.21 583.173 1680.5 583.08 1679.73 583.08C1678.48 583.08 1677.5 583.36 1676.81 583.92C1676.14 584.453 1675.81 585.12 1675.81 585.92C1675.81 586.72 1676.13 587.36 1676.77 587.84C1677.44 588.32 1678.2 588.56 1679.05 588.56C1679.74 588.56 1680.38 588.44 1680.97 588.2C1681.56 587.933 1682.05 587.6 1682.45 587.2C1682.88 586.773 1683.2 586.293 1683.41 585.76C1683.65 585.2 1683.77 584.627 1683.77 584.04ZM1690.83 572.4H1696.79L1701.67 584.88H1701.95L1706.87 572.4H1712.79L1704.35 592H1699.19L1690.83 572.4ZM1733.35 587.28C1732.44 588.88 1731.21 590.173 1729.67 591.16C1728.15 592.147 1726.28 592.64 1724.07 592.64C1722.57 592.64 1721.19 592.387 1719.91 591.88C1718.65 591.347 1717.56 590.613 1716.63 589.68C1715.69 588.747 1714.96 587.653 1714.43 586.4C1713.92 585.12 1713.67 583.72 1713.67 582.2C1713.67 580.787 1713.92 579.453 1714.43 578.2C1714.93 576.92 1715.64 575.813 1716.55 574.88C1717.45 573.92 1718.52 573.16 1719.75 572.6C1721 572.04 1722.37 571.76 1723.87 571.76C1725.44 571.76 1726.84 572.027 1728.07 572.56C1729.29 573.067 1730.32 573.787 1731.15 574.72C1731.97 575.627 1732.6 576.707 1733.03 577.96C1733.45 579.213 1733.67 580.573 1733.67 582.04C1733.67 582.227 1733.67 582.387 1733.67 582.52C1733.64 582.68 1733.63 582.827 1733.63 582.96C1733.6 583.093 1733.59 583.24 1733.59 583.4H1718.83C1718.93 584.2 1719.15 584.893 1719.47 585.48C1719.81 586.04 1720.23 586.52 1720.71 586.92C1721.21 587.293 1721.76 587.573 1722.35 587.76C1722.93 587.92 1723.53 588 1724.15 588C1725.35 588 1726.33 587.733 1727.11 587.2C1727.91 586.64 1728.53 585.947 1728.99 585.12L1733.35 587.28ZM1728.59 579.68C1728.56 579.333 1728.44 578.947 1728.23 578.52C1728.04 578.093 1727.75 577.693 1727.35 577.32C1726.97 576.947 1726.49 576.64 1725.91 576.4C1725.35 576.16 1724.67 576.04 1723.87 576.04C1722.75 576.04 1721.76 576.36 1720.91 577C1720.05 577.64 1719.45 578.533 1719.11 579.68H1728.59ZM1758.28 589.92H1757.96C1757.35 590.667 1756.6 591.307 1755.72 591.84C1754.87 592.373 1753.76 592.64 1752.4 592.64C1751.39 592.64 1750.43 592.467 1749.52 592.12C1748.64 591.8 1747.87 591.347 1747.2 590.76C1746.53 590.173 1746.01 589.467 1745.64 588.64C1745.27 587.813 1745.08 586.907 1745.08 585.92C1745.08 584.907 1745.28 584 1745.68 583.2C1746.08 582.373 1746.64 581.667 1747.36 581.08C1748.08 580.493 1748.92 580.053 1749.88 579.76C1750.87 579.44 1751.93 579.28 1753.08 579.28C1754.36 579.28 1755.41 579.387 1756.24 579.6C1757.07 579.787 1757.75 579.987 1758.28 580.2V579.6C1758.28 578.56 1757.87 577.707 1757.04 577.04C1756.21 576.347 1755.19 576 1753.96 576C1752.15 576 1750.61 576.76 1749.36 578.28L1745.56 575.68C1747.64 573.067 1750.48 571.76 1754.08 571.76C1757.12 571.76 1759.44 572.48 1761.04 573.92C1762.64 575.333 1763.44 577.44 1763.44 580.24V592H1758.28V589.92ZM1758.28 584.04C1757.67 583.747 1757.03 583.52 1756.36 583.36C1755.72 583.173 1755.01 583.08 1754.24 583.08C1752.99 583.08 1752.01 583.36 1751.32 583.92C1750.65 584.453 1750.32 585.12 1750.32 585.92C1750.32 586.72 1750.64 587.36 1751.28 587.84C1751.95 588.32 1752.71 588.56 1753.56 588.56C1754.25 588.56 1754.89 588.44 1755.48 588.2C1756.07 587.933 1756.56 587.6 1756.96 587.2C1757.39 586.773 1757.71 586.293 1757.92 585.76C1758.16 585.2 1758.28 584.627 1758.28 584.04Z" fill="white"/>
<g filter="url(#filter0_f_111_2)">
<path d="M1798.24 586.56C1798.24 588.267 1797.49 589.707 1796 590.88C1794.51 592.053 1792.63 592.64 1790.36 592.64C1788.39 592.64 1786.65 592.133 1785.16 591.12C1783.67 590.08 1782.6 588.72 1781.96 587.04L1785.24 585.64C1785.72 586.813 1786.41 587.733 1787.32 588.4C1788.25 589.04 1789.27 589.36 1790.36 589.36C1791.53 589.36 1792.51 589.107 1793.28 588.6C1794.08 588.093 1794.48 587.493 1794.48 586.8C1794.48 585.547 1793.52 584.627 1791.6 584.04L1788.24 583.2C1784.43 582.24 1782.52 580.4 1782.52 577.68C1782.52 575.893 1783.24 574.467 1784.68 573.4C1786.15 572.307 1788.01 571.76 1790.28 571.76C1792.01 571.76 1793.57 572.173 1794.96 573C1796.37 573.827 1797.36 574.933 1797.92 576.32L1794.64 577.68C1794.27 576.853 1793.65 576.213 1792.8 575.76C1791.97 575.28 1791.04 575.04 1790 575.04C1789.04 575.04 1788.17 575.28 1787.4 575.76C1786.65 576.24 1786.28 576.827 1786.28 577.52C1786.28 578.64 1787.33 579.44 1789.44 579.92L1792.4 580.68C1796.29 581.64 1798.24 583.6 1798.24 586.56ZM1809.21 592.32C1807.61 592.32 1806.27 591.827 1805.21 590.84C1804.17 589.853 1803.63 588.48 1803.61 586.72V575.76H1800.17V572.4H1803.61V566.4H1807.29V572.4H1812.09V575.76H1807.29V585.52C1807.29 586.827 1807.54 587.72 1808.05 588.2C1808.55 588.653 1809.13 588.88 1809.77 588.88C1810.06 588.88 1810.34 588.853 1810.61 588.8C1810.9 588.72 1811.17 588.627 1811.41 588.52L1812.57 591.8C1811.61 592.147 1810.49 592.32 1809.21 592.32ZM1818.08 586C1818.08 586.96 1818.48 587.76 1819.28 588.4C1820.1 589.04 1821.06 589.36 1822.16 589.36C1823.7 589.36 1825.08 588.787 1826.28 587.64C1827.5 586.493 1828.12 585.147 1828.12 583.6C1826.97 582.693 1825.37 582.24 1823.32 582.24C1821.82 582.24 1820.57 582.6 1819.56 583.32C1818.57 584.04 1818.08 584.933 1818.08 586ZM1822.84 571.76C1825.56 571.76 1827.7 572.493 1829.28 573.96C1830.85 575.4 1831.64 577.387 1831.64 579.92V592H1828.12V589.28H1827.96C1826.44 591.52 1824.41 592.64 1821.88 592.64C1819.72 592.64 1817.9 592 1816.44 590.72C1815 589.44 1814.28 587.84 1814.28 585.92C1814.28 583.893 1815.04 582.28 1816.56 581.08C1818.1 579.88 1820.16 579.28 1822.72 579.28C1824.9 579.28 1826.7 579.68 1828.12 580.48V579.64C1828.12 578.36 1827.61 577.28 1826.6 576.4C1825.58 575.493 1824.4 575.04 1823.04 575.04C1820.98 575.04 1819.36 575.907 1818.16 577.64L1814.92 575.6C1816.7 573.04 1819.34 571.76 1822.84 571.76ZM1835.99 572.4H1839.51V575.12H1839.67C1840.23 574.16 1841.08 573.36 1842.23 572.72C1843.4 572.08 1844.62 571.76 1845.87 571.76C1848.27 571.76 1850.11 572.453 1851.39 573.84C1852.7 575.2 1853.35 577.147 1853.35 579.68V592H1849.67V579.92C1849.59 576.72 1847.98 575.12 1844.83 575.12C1843.36 575.12 1842.14 575.72 1841.15 576.92C1840.16 578.093 1839.67 579.507 1839.67 581.16V592H1835.99V572.4ZM1866.67 589.28C1868.48 589.28 1869.96 588.627 1871.11 587.32C1872.31 586.013 1872.91 584.307 1872.91 582.2C1872.91 580.147 1872.31 578.453 1871.11 577.12C1869.93 575.787 1868.45 575.12 1866.67 575.12C1864.91 575.12 1863.43 575.787 1862.23 577.12C1861.03 578.453 1860.43 580.147 1860.43 582.2C1860.43 584.28 1861.03 585.973 1862.23 587.28C1863.43 588.613 1864.91 589.28 1866.67 589.28ZM1866.07 592.64C1863.51 592.64 1861.31 591.627 1859.47 589.6C1857.65 587.547 1856.75 585.08 1856.75 582.2C1856.75 579.32 1857.65 576.853 1859.47 574.8C1861.31 572.773 1863.51 571.76 1866.07 571.76C1867.51 571.76 1868.81 572.067 1869.99 572.68C1871.19 573.293 1872.11 574.107 1872.75 575.12H1872.91L1872.75 572.4V563.36H1876.43V592H1872.91V589.28H1872.75C1872.11 590.293 1871.19 591.107 1869.99 591.72C1868.81 592.333 1867.51 592.64 1866.07 592.64ZM1885.12 596.8H1881.76V560.32H1885.12V596.8ZM1893.1 586C1893.1 586.96 1893.5 587.76 1894.3 588.4C1895.12 589.04 1896.08 589.36 1897.18 589.36C1898.72 589.36 1900.1 588.787 1901.3 587.64C1902.52 586.493 1903.14 585.147 1903.14 583.6C1901.99 582.693 1900.39 582.24 1898.34 582.24C1896.84 582.24 1895.59 582.6 1894.58 583.32C1893.59 584.04 1893.1 584.933 1893.1 586ZM1897.86 571.76C1900.58 571.76 1902.72 572.493 1904.3 573.96C1905.87 575.4 1906.66 577.387 1906.66 579.92V592H1903.14V589.28H1902.98C1901.46 591.52 1899.43 592.64 1896.9 592.64C1894.74 592.64 1892.92 592 1891.46 590.72C1890.02 589.44 1889.3 587.84 1889.3 585.92C1889.3 583.893 1890.06 582.28 1891.58 581.08C1893.12 579.88 1895.18 579.28 1897.74 579.28C1899.92 579.28 1901.72 579.68 1903.14 580.48V579.64C1903.14 578.36 1902.63 577.28 1901.62 576.4C1900.6 575.493 1899.42 575.04 1898.06 575.04C1896 575.04 1894.38 575.907 1893.18 577.64L1889.94 575.6C1891.72 573.04 1894.36 571.76 1897.86 571.76ZM1933.97 592.32C1932.37 592.32 1931.03 591.827 1929.97 590.84C1928.93 589.853 1928.39 588.48 1928.37 586.72V575.76H1924.93V572.4H1928.37V566.4H1932.05V572.4H1936.85V575.76H1932.05V585.52C1932.05 586.827 1932.3 587.72 1932.81 588.2C1933.31 588.653 1933.89 588.88 1934.53 588.88C1934.82 588.88 1935.1 588.853 1935.37 588.8C1935.66 588.72 1935.93 588.627 1936.17 588.52L1937.33 591.8C1936.37 592.147 1935.25 592.32 1933.97 592.32ZM1911.01 572.4H1914.53V575.6H1914.69C1915.78 573.093 1918.03 571.84 1921.45 571.84L1922.21 571.92V575.76L1920.57 575.6C1918.86 575.6 1917.45 576.133 1916.33 577.2C1915.23 578.24 1914.69 579.573 1914.69 581.2V592H1911.01V572.4ZM1977.47 577.68C1977.47 581.92 1976.06 585.467 1973.23 588.32C1970.38 591.2 1966.88 592.64 1962.75 592.64C1958.59 592.64 1955.1 591.2 1952.27 588.32C1949.44 585.467 1948.03 581.92 1948.03 577.68C1948.03 573.44 1949.44 569.893 1952.27 567.04C1955.1 564.16 1958.59 562.72 1962.75 562.72C1966.91 562.72 1970.4 564.173 1973.23 567.08C1976.06 569.933 1977.47 573.467 1977.47 577.68ZM1951.79 577.68C1951.79 580.987 1952.83 583.72 1954.91 585.88C1957.02 588.04 1959.63 589.12 1962.75 589.12C1965.87 589.12 1968.47 588.04 1970.55 585.88C1972.66 583.747 1973.71 581.013 1973.71 577.68C1973.71 574.347 1972.66 571.613 1970.55 569.48C1968.47 567.32 1965.87 566.24 1962.75 566.24C1959.63 566.24 1957.02 567.32 1954.91 569.48C1952.83 571.64 1951.79 574.373 1951.79 577.68ZM1999.69 584.36C1999.69 586.867 1998.77 588.88 1996.93 590.4C1995.07 591.893 1992.8 592.64 1990.13 592.64C1987.76 592.64 1985.67 591.947 1983.85 590.56C1982.04 589.173 1980.79 587.28 1980.09 584.88L1983.61 583.44C1983.85 584.293 1984.19 585.067 1984.61 585.76C1985.04 586.453 1985.53 587.053 1986.09 587.56C1986.68 588.04 1987.32 588.427 1988.01 588.72C1988.71 588.987 1989.44 589.12 1990.21 589.12C1991.89 589.12 1993.27 588.693 1994.33 587.84C1995.4 586.96 1995.93 585.8 1995.93 584.36C1995.93 583.16 1995.49 582.133 1994.61 581.28C1993.79 580.453 1992.24 579.653 1989.97 578.88C1987.68 578.053 1986.25 577.493 1985.69 577.2C1982.65 575.653 1981.13 573.373 1981.13 570.36C1981.13 568.253 1981.97 566.453 1983.65 564.96C1985.36 563.467 1987.45 562.72 1989.93 562.72C1992.12 562.72 1994.01 563.28 1995.61 564.4C1997.21 565.493 1998.28 566.867 1998.81 568.52L1995.37 569.96C1995.05 568.893 1994.41 568.013 1993.45 567.32C1992.52 566.6 1991.37 566.24 1990.01 566.24C1988.57 566.24 1987.36 566.64 1986.37 567.44C1985.39 568.187 1984.89 569.16 1984.89 570.36C1984.89 571.347 1985.28 572.2 1986.05 572.92C1986.91 573.64 1988.76 574.493 1991.61 575.48C1994.52 576.467 1996.59 577.68 1997.81 579.12C1999.07 580.533 1999.69 582.28 1999.69 584.36Z" fill="black"/>
</g>
<defs>
<filter id="filter0_f_111_2" x="1777.96" y="556.32" width="225.733" height="44.48" filterUnits="userSpaceOnUse" color-interpolation-filters="sRGB">
<feFlood flood-opacity="0" result="BackgroundImageFix"/>
<feBlend mode="normal" in="SourceGraphic" in2="BackgroundImageFix" result="shape"/>
<feGaussianBlur stdDeviation="2" result="effect1_foregroundBlur_111_2"/>
</filter>
<linearGradient id="paint0_linear_111_2" x1="1372" y1="0" x2="1372" y2="1154" gradientUnits="userSpaceOnUse">
<stop offset="0.157433" stop-color="#D1ECFB"/>
<stop offset="1" stop-color="#2885BA" stop-opacity="0.3"/>
</linearGradient>
<linearGradient id="paint1_linear_111_2" x1="295.5" y1="45" x2="295.5" y2="255" gradientUnits="userSpaceOnUse">
<stop offset="0.490842" stop-opacity="0.5"/>
<stop offset="1" stop-opacity="0.01"/>
</linearGradient>
<linearGradient id="paint2_linear_111_2" x1="295.5" y1="45" x2="295.5" y2="255" gradientUnits="userSpaceOnUse">
<stop offset="0.490842" stop-color="#AF2121" stop-opacity="0.5"/>
<stop offset="1" stop-opacity="0.01"/>
</linearGradient>
</defs>
</svg>
